<svg aria-hidden="true" version="1.1" xmlns="http://www.w3.org/2000/svg" xmlns:xlink="http://www.w3.org/1999/xlink">
  <defs>
    <symbol id="icon-globe" viewBox="0 0 24 24">
      <path d="M16.951 11c-0.214-2.69-1.102-5.353-2.674-7.71 1.57 0.409 2.973 1.232 4.087 2.346 1.408 1.408 2.351 3.278 2.581 5.364zM14.279 20.709c1.483-2.226 2.437-4.853 2.669-7.709h3.997c-0.23 2.086-1.173 3.956-2.581 5.364-1.113 1.113-2.516 1.936-4.085 2.345zM7.049 13c0.214 2.69 1.102 5.353 2.674 7.71-1.57-0.409-2.973-1.232-4.087-2.346-1.408-1.408-2.351-3.278-2.581-5.364zM9.721 3.291c-1.482 2.226-2.436 4.853-2.669 7.709h-3.997c0.23-2.086 1.173-3.956 2.581-5.364 1.114-1.113 2.516-1.936 4.085-2.345zM12.004 1c0 0 0 0 0 0-3.044 0.001-5.794 1.233-7.782 3.222-1.99 1.989-3.222 4.741-3.222 7.778s1.232 5.789 3.222 7.778c1.988 1.989 4.738 3.221 7.774 3.222 0 0 0 0 0 0 3.044-0.001 5.793-1.233 7.782-3.222 1.99-1.989 3.222-4.741 3.222-7.778s-1.232-5.789-3.222-7.778c-1.988-1.989-4.738-3.221-7.774-3.222zM14.946 13c-0.252 2.788-1.316 5.36-2.945 7.451-1.729-2.221-2.706-4.818-2.945-7.451zM11.999 3.549c1.729 2.221 2.706 4.818 2.945 7.451h-5.89c0.252-2.788 1.316-5.36 2.945-7.451z"></path>
    </symbol>
    <symbol id="icon-search" viewBox="0 0 24 24">
      <path d="M16.041 15.856c-0.034 0.026-0.067 0.055-0.099 0.087s-0.060 0.064-0.087 0.099c-1.258 1.213-2.969 1.958-4.855 1.958-1.933 0-3.682-0.782-4.95-2.050s-2.050-3.017-2.050-4.95 0.782-3.682 2.050-4.95 3.017-2.050 4.95-2.050 3.682 0.782 4.95 2.050 2.050 3.017 2.050 4.95c0 1.886-0.745 3.597-1.959 4.856zM21.707 20.293l-3.675-3.675c1.231-1.54 1.968-3.493 1.968-5.618 0-2.485-1.008-4.736-2.636-6.364s-3.879-2.636-6.364-2.636-4.736 1.008-6.364 2.636-2.636 3.879-2.636 6.364 1.008 4.736 2.636 6.364 3.879 2.636 6.364 2.636c2.125 0 4.078-0.737 5.618-1.968l3.675 3.675c0.391 0.391 1.024 0.391 1.414 0s0.391-1.024 0-1.414z"></path>
    </symbol>
    <symbol id="icon-profile" viewBox="0 0 24 24">
      <path d="M21 21v-2c0-1.38-0.561-2.632-1.464-3.536s-2.156-1.464-3.536-1.464h-8c-1.38 0-2.632 0.561-3.536 1.464s-1.464 2.156-1.464 3.536v2c0 0.552 0.448 1 1 1s1-0.448 1-1v-2c0-0.829 0.335-1.577 0.879-2.121s1.292-0.879 2.121-0.879h8c0.829 0 1.577 0.335 2.121 0.879s0.879 1.292 0.879 2.121v2c0 0.552 0.448 1 1 1s1-0.448 1-1zM17 7c0-1.38-0.561-2.632-1.464-3.536s-2.156-1.464-3.536-1.464-2.632 0.561-3.536 1.464-1.464 2.156-1.464 3.536 0.561 2.632 1.464 3.536 2.156 1.464 3.536 1.464 2.632-0.561 3.536-1.464 1.464-2.156 1.464-3.536zM15 7c0 0.829-0.335 1.577-0.879 2.121s-1.292 0.879-2.121 0.879-1.577-0.335-2.121-0.879-0.879-1.292-0.879-2.121 0.335-1.577 0.879-2.121 1.292-0.879 2.121-0.879 1.577 0.335 2.121 0.879 0.879 1.292 0.879 2.121z"></path>
    </symbol>
    <symbol id="icon-menu" viewBox="0 0 24 24">
      <path d="M3 13h18c0.552 0 1-0.448 1-1s-0.448-1-1-1h-18c-0.552 0-1 0.448-1 1s0.448 1 1 1zM3 7h18c0.552 0 1-0.448 1-1s-0.448-1-1-1h-18c-0.552 0-1 0.448-1 1s0.448 1 1 1zM3 19h18c0.552 0 1-0.448 1-1s-0.448-1-1-1h-18c-0.552 0-1 0.448-1 1s0.448 1 1 1z"></path>
    </symbol>
    <symbol id="icon-facebook" viewBox="0 0 24 24">
      <path d="M17 3v2h-2c-0.552 0-1.053 0.225-1.414 0.586s-0.586 0.862-0.586 1.414v3c0 0.552 0.448 1 1 1h2.719l-0.5 2h-2.219c-0.552 0-1 0.448-1 1v7h-2v-7c0-0.552-0.448-1-1-1h-2v-2h2c0.552 0 1-0.448 1-1v-3c0-1.105 0.447-2.103 1.172-2.828s1.723-1.172 2.828-1.172zM18 1h-3c-1.657 0-3.158 0.673-4.243 1.757s-1.757 2.586-1.757 4.243v2h-2c-0.552 0-1 0.448-1 1v4c0 0.552 0.448 1 1 1h2v7c0 0.552 0.448 1 1 1h4c0.552 0 1-0.448 1-1v-7h2c0.466 0 0.858-0.319 0.97-0.757l1-4c0.134-0.536-0.192-1.079-0.728-1.213-0.083-0.021-0.167-0.031-0.242-0.030h-3v-2h3c0.552 0 1-0.448 1-1v-4c0-0.552-0.448-1-1-1z"></path>
    </symbol>
    <symbol id="icon-facebook1" viewBox="0 0 24 24">
      <path d="M20.9 2h-17.8c-0.608 0-1.1 0.492-1.1 1.1v0 17.8c0 0.608 0.492 1.1 1.1 1.1h9.58v-7.75h-2.6v-3h2.6v-2.25c-0.012-0.111-0.019-0.239-0.019-0.369 0-2.010 1.63-3.64 3.64-3.64 0.091 0 0.181 0.003 0.271 0.010l-0.012-0.001c0.037-0 0.081-0 0.125-0 0.777 0 1.544 0.044 2.298 0.129l-0.092-0.008v2.7h-1.59c-1.26 0-1.5 0.6-1.5 1.47v1.93h3l-0.39 3h-2.61v7.78h5.1c0.608 0 1.1-0.492 1.1-1.1v0-17.8c0-0.608-0.492-1.1-1.1-1.1v0z"></path>
    </symbol>
    <symbol id="icon-twitter1" viewBox="0 0 24 24">
      <path d="M22 5.8c-0.687 0.307-1.484 0.532-2.319 0.636l-0.041 0.004c0.85-0.514 1.489-1.303 1.802-2.241l0.008-0.029c-0.751 0.455-1.626 0.802-2.557 0.991l-0.053 0.009c-0.752-0.813-1.824-1.321-3.014-1.321-2.264 0-4.1 1.836-4.1 4.1 0 0.341 0.042 0.672 0.12 0.989l-0.006-0.028c-3.416-0.178-6.42-1.803-8.433-4.269l-0.017-0.021c-0.346 0.594-0.55 1.307-0.55 2.067 0 0.001 0 0.002 0 0.003v-0c0 0.002 0 0.005 0 0.008 0 1.413 0.716 2.658 1.805 3.393l0.015 0.009c-0.686-0.019-1.324-0.206-1.88-0.521l0.020 0.010v0.050c0.011 1.973 1.412 3.615 3.274 3.995l0.026 0.005c-0.328 0.104-0.706 0.165-1.098 0.17l-0.002 0c-0.274-0.003-0.54-0.029-0.799-0.074l0.029 0.004c0.544 1.638 2.046 2.805 3.826 2.84l0.004 0c-1.378 1.092-3.141 1.754-5.059 1.76h-0.001c-0.008 0-0.017 0-0.026 0-0.343 0-0.682-0.022-1.013-0.064l0.039 0.004c1.773 1.16 3.944 1.85 6.276 1.85 0.005 0 0.010 0 0.015 0h-0.001c0.036 0 0.078 0.001 0.12 0.001 6.401 0 11.59-5.189 11.59-11.59 0-0.032-0-0.064-0-0.096l0 0.005c0-0.17 0-0.35 0-0.53 0.786-0.59 1.449-1.292 1.981-2.089l0.019-0.031z"></path>
    </symbol>
    <symbol id="icon-instagram1" viewBox="0 0 24 24">
      <path d="M17.34 5.46v0c-0.663 0-1.2 0.537-1.2 1.2s0.537 1.2 1.2 1.2c0.663 0 1.2-0.537 1.2-1.2v0c0-0.663-0.537-1.2-1.2-1.2v0zM21.94 7.88c-0.021-0.878-0.188-1.71-0.477-2.482l0.017 0.052c-0.268-0.693-0.663-1.283-1.159-1.769l-0.001-0.001c-0.484-0.5-1.075-0.892-1.738-1.139l-0.032-0.011c-0.72-0.28-1.552-0.451-2.422-0.47l-0.008-0c-1.060-0.060-1.4-0.060-4.12-0.060s-3.060 0-4.12 0.060c-0.878 0.019-1.71 0.19-2.48 0.487l0.050-0.017c-0.694 0.26-1.285 0.652-1.769 1.149l-0.001 0.001c-0.5 0.484-0.892 1.075-1.139 1.738l-0.011 0.032c-0.28 0.72-0.451 1.552-0.47 2.422l-0 0.008c-0.060 1.060-0.060 1.4-0.060 4.12s0 3.060 0.060 4.12c0.019 0.878 0.19 1.71 0.487 2.48l-0.017-0.050c0.258 0.695 0.65 1.286 1.149 1.769l0.001 0.001c0.485 0.498 1.076 0.89 1.737 1.139l0.033 0.011c0.72 0.28 1.552 0.451 2.422 0.47l0.008 0c1.060 0.060 1.4 0.060 4.12 0.060s3.060 0 4.12-0.060c0.878-0.019 1.71-0.19 2.48-0.487l-0.050 0.017c0.695-0.258 1.286-0.65 1.769-1.149l0.001-0.001c0.5-0.486 0.894-1.076 1.149-1.737l0.011-0.033c0.272-0.72 0.439-1.552 0.46-2.421l0-0.009c0-1.060 0.060-1.4 0.060-4.12s0-3.060-0.060-4.12zM20.14 16c-0.008 0.67-0.132 1.308-0.353 1.899l0.013-0.039c-0.168 0.452-0.424 0.836-0.749 1.149l-0.001 0.001c-0.316 0.322-0.7 0.577-1.128 0.743l-0.022 0.007c-0.552 0.208-1.19 0.332-1.857 0.34l-0.003 0c-1 0.050-1.37 0.060-4 0.060s-3 0-4-0.060c-0.032 0.001-0.070 0.001-0.107 0.001-0.656 0-1.286-0.11-1.873-0.313l0.040 0.012c-0.43-0.181-0.796-0.435-1.099-0.749l-0.001-0.001c-0.324-0.314-0.576-0.698-0.733-1.129l-0.007-0.021c-0.233-0.56-0.378-1.21-0.4-1.891l-0-0.009c0-1-0.060-1.37-0.060-4s0-3 0.060-4c0.005-0.684 0.133-1.336 0.363-1.938l-0.013 0.038c0.184-0.435 0.453-0.803 0.787-1.097l0.003-0.003c0.299-0.338 0.666-0.608 1.080-0.792l0.020-0.008c0.565-0.21 1.217-0.334 1.898-0.34l0.002-0c1 0 1.37-0.060 4-0.060s3 0 4 0.060c0.67 0.008 1.308 0.132 1.899 0.353l-0.039-0.013c0.47 0.177 0.869 0.451 1.188 0.798l0.002 0.002c0.32 0.301 0.575 0.668 0.743 1.080l0.007 0.020c0.213 0.565 0.337 1.217 0.34 1.899v0.001c0.050 1 0.060 1.37 0.060 4s-0.010 3-0.060 4zM12 6.87c-2.829 0.006-5.12 2.3-5.12 5.13 0 2.833 2.297 5.13 5.13 5.13s5.13-2.297 5.13-5.13v0c0-0.003 0-0.007 0-0.010 0-2.828-2.292-5.12-5.12-5.12-0.007 0-0.014 0-0.021 0h0.001zM12 15.33c-1.839 0-3.33-1.491-3.33-3.33s1.491-3.33 3.33-3.33c1.839 0 3.33 1.491 3.33 3.33v0c0 1.839-1.491 3.33-3.33 3.33v0z"></path>
    </symbol>
    <symbol id="icon-youtube1" viewBox="0 0 24 24">
      <path d="M23 9.71c0.003-0.087 0.005-0.19 0.005-0.293 0-1.399-0.338-2.72-0.937-3.884l0.022 0.048c-0.43-0.511-1.025-0.871-1.702-0.997l-0.018-0.003c-2.122-0.204-4.588-0.321-7.081-0.321-0.453 0-0.905 0.004-1.357 0.012l0.068-0.001c-0.403-0.007-0.878-0.012-1.354-0.012-2.46 0-4.893 0.113-7.294 0.335l0.308-0.023c-0.571 0.106-1.069 0.369-1.461 0.741l0.001-0.001c-0.9 0.83-1 2.25-1.1 3.45-0.069 0.969-0.109 2.1-0.109 3.24s0.040 2.271 0.117 3.391l-0.008-0.151c0.032 0.725 0.139 1.41 0.315 2.067l-0.015-0.067c0.129 0.528 0.376 0.986 0.713 1.363l-0.003-0.003c0.395 0.391 0.904 0.668 1.472 0.777l0.018 0.003c1.662 0.217 3.584 0.34 5.535 0.34 0.339 0 0.678-0.004 1.015-0.011l-0.050 0.001c3.5 0.050 6.57 0 10.2-0.28 0.601-0.105 1.124-0.383 1.531-0.781l-0.001 0.001c0.272-0.273 0.482-0.608 0.605-0.982l0.005-0.018c0.33-0.979 0.521-2.106 0.521-3.278 0-0.043-0-0.086-0.001-0.128l0 0.006c0.040-0.56 0.040-3.94 0.040-4.54zM9.74 14.85v-6.19l5.92 3.11c-1.66 0.92-3.85 1.96-5.92 3.080z"></path>
    </symbol>
    <symbol id="icon-whatsapp" viewBox="0 0 24 24">
      <path d="M16.6 14c-0.2-0.1-1.5-0.7-1.7-0.8s-0.4-0.1-0.6 0.1c-0.2 0.2-0.6 0.8-0.8 1-0.1 0.2-0.3 0.2-0.5 0.1-0.7-0.3-1.4-0.7-2-1.2-0.5-0.5-1-1.1-1.4-1.7-0.1-0.2 0-0.4 0.1-0.5s0.2-0.3 0.4-0.4c0.1-0.1 0.2-0.3 0.2-0.4 0.1-0.1 0.1-0.3 0-0.4s-0.6-1.3-0.8-1.8c-0.1-0.7-0.3-0.7-0.5-0.7-0.1 0-0.3 0-0.5 0s-0.5 0.2-0.6 0.3c-0.6 0.6-0.9 1.3-0.9 2.1 0.1 0.9 0.4 1.8 1 2.6 1.1 1.6 2.5 2.9 4.2 3.7 0.5 0.2 0.9 0.4 1.4 0.5 0.5 0.2 1 0.2 1.6 0.1 0.7-0.1 1.3-0.6 1.7-1.2 0.2-0.4 0.2-0.8 0.1-1.2 0 0-0.2-0.1-0.4-0.2zM19.1 4.9c-3.9-3.9-10.2-3.9-14.1 0-3.2 3.2-3.8 8.1-1.6 12l-1.4 5.1 5.3-1.4c1.5 0.8 3.1 1.2 4.7 1.2v0c5.5 0 9.9-4.4 9.9-9.9 0.1-2.6-1-5.1-2.8-7zM16.4 18.9c-1.3 0.8-2.8 1.3-4.4 1.3v0c-1.5 0-2.9-0.4-4.2-1.1l-0.3-0.2-3.1 0.8 0.8-3-0.2-0.3c-2.4-4-1.2-9 2.7-11.5s8.9-1.2 11.3 2.6c2.4 3.9 1.3 9-2.6 11.4z"></path>
    </symbol>
    <symbol id="icon-linkedin1" viewBox="0 0 24 24">
      <path d="M20.47 2h-16.94c-0.006-0-0.013-0-0.020-0-0.794 0-1.439 0.638-1.45 1.429l-0 0.001v17.14c0.011 0.792 0.656 1.43 1.45 1.43 0.007 0 0.014-0 0.021-0l-0.001 0h16.94c0.006 0 0.013 0 0.020 0 0.794 0 1.439-0.638 1.45-1.429l0-0.001v-17.14c-0.011-0.792-0.656-1.43-1.45-1.43-0.007 0-0.014 0-0.021 0l0.001-0zM8.090 18.74h-3v-9h3zM6.59 8.48v0c-0.862 0-1.56-0.698-1.56-1.56s0.698-1.56 1.56-1.56v0c0.053-0.006 0.115-0.010 0.177-0.010 0.867 0 1.57 0.703 1.57 1.57s-0.703 1.57-1.57 1.57c-0.062 0-0.124-0.004-0.184-0.011l0.007 0.001zM18.91 18.74h-3v-4.83c0-1.21-0.43-2-1.52-2-0.706 0.005-1.305 0.453-1.536 1.079l-0.004 0.011c-0.065 0.189-0.102 0.406-0.102 0.632 0 0.035 0.001 0.069 0.003 0.103l-0-0.005v5h-3s0-8.18 0-9h3v1.27c0.528-0.904 1.494-1.502 2.599-1.502 0.039 0 0.078 0.001 0.116 0.002l-0.006-0c2 0 3.45 1.29 3.45 4.060z"></path>
    </symbol>
    <symbol id="icon-building" viewBox="0 0 24 24">
      <path d="M14 8h1c0.552 0 1-0.448 1-1s-0.448-1-1-1v0h-1c-0.552 0-1 0.448-1 1s0.448 1 1 1v0zM14 12h1c0.552 0 1-0.448 1-1s-0.448-1-1-1v0h-1c-0.552 0-1 0.448-1 1s0.448 1 1 1v0zM9 8h1c0.552 0 1-0.448 1-1s-0.448-1-1-1v0h-1c-0.552 0-1 0.448-1 1s0.448 1 1 1v0zM9 12h1c0.552 0 1-0.448 1-1s-0.448-1-1-1v0h-1c-0.552 0-1 0.448-1 1s0.448 1 1 1v0zM21 20h-1v-17c0-0.552-0.448-1-1-1v0h-14c-0.552 0-1 0.448-1 1v0 17h-1c-0.552 0-1 0.448-1 1s0.448 1 1 1v0h18c0.552 0 1-0.448 1-1s-0.448-1-1-1v0zM13 20h-2v-4h2zM18 20h-3v-5c0-0.552-0.448-1-1-1v0h-4c-0.552 0-1 0.448-1 1v0 5h-3v-16h12z"></path>
    </symbol>
    <symbol id="icon-map-pin" viewBox="0 0 24 24">
      <path d="M22 10c0-2.761-1.12-5.263-2.929-7.071s-4.31-2.929-7.071-2.929-5.263 1.12-7.071 2.929-2.929 4.31-2.929 7.071c0 0.569 0.053 1.128 0.15 1.676 0.274 1.548 0.899 3.004 1.682 4.32 2.732 4.591 7.613 7.836 7.613 7.836 0.331 0.217 0.765 0.229 1.109 0 0 0 4.882-3.245 7.613-7.836 0.783-1.316 1.408-2.772 1.682-4.32 0.098-0.548 0.151-1.107 0.151-1.676zM20 10c0 0.444-0.041 0.887-0.119 1.328-0.221 1.25-0.737 2.478-1.432 3.646-1.912 3.214-5.036 5.747-6.369 6.74-1.398-0.916-4.588-3.477-6.53-6.74-0.695-1.168-1.211-2.396-1.432-3.646-0.077-0.441-0.118-0.884-0.118-1.328 0-2.209 0.894-4.208 2.343-5.657s3.448-2.343 5.657-2.343 4.208 0.894 5.657 2.343 2.343 3.448 2.343 5.657zM16 10c0-1.104-0.449-2.106-1.172-2.828s-1.724-1.172-2.828-1.172-2.106 0.449-2.828 1.172-1.172 1.724-1.172 2.828 0.449 2.106 1.172 2.828 1.724 1.172 2.828 1.172 2.106-0.449 2.828-1.172 1.172-1.724 1.172-2.828zM14 10c0 0.553-0.223 1.051-0.586 1.414s-0.861 0.586-1.414 0.586-1.051-0.223-1.414-0.586-0.586-0.861-0.586-1.414 0.223-1.051 0.586-1.414 0.861-0.586 1.414-0.586 1.051 0.223 1.414 0.586 0.586 0.861 0.586 1.414z"></path>
    </symbol>
    <symbol id="icon-users" viewBox="0 0 24 24">
      <path d="M18 21v-2c0-1.38-0.561-2.632-1.464-3.536s-2.156-1.464-3.536-1.464h-8c-1.38 0-2.632 0.561-3.536 1.464s-1.464 2.156-1.464 3.536v2c0 0.552 0.448 1 1 1s1-0.448 1-1v-2c0-0.829 0.335-1.577 0.879-2.121s1.292-0.879 2.121-0.879h8c0.829 0 1.577 0.335 2.121 0.879s0.879 1.292 0.879 2.121v2c0 0.552 0.448 1 1 1s1-0.448 1-1zM14 7c0-1.38-0.561-2.632-1.464-3.536s-2.156-1.464-3.536-1.464-2.632 0.561-3.536 1.464-1.464 2.156-1.464 3.536 0.561 2.632 1.464 3.536 2.156 1.464 3.536 1.464 2.632-0.561 3.536-1.464 1.464-2.156 1.464-3.536zM12 7c0 0.829-0.335 1.577-0.879 2.121s-1.292 0.879-2.121 0.879-1.577-0.335-2.121-0.879-0.879-1.292-0.879-2.121 0.335-1.577 0.879-2.121 1.292-0.879 2.121-0.879 1.577 0.335 2.121 0.879 0.879 1.292 0.879 2.121zM24 21v-2c-0.001-1.245-0.457-2.385-1.215-3.261-0.652-0.753-1.528-1.311-2.529-1.576-0.534-0.141-1.081 0.177-1.222 0.711s0.177 1.081 0.711 1.222c0.607 0.161 1.136 0.498 1.528 0.952 0.454 0.526 0.726 1.206 0.727 1.952v2c0 0.552 0.448 1 1 1s1-0.448 1-1zM15.752 4.099c0.803 0.206 1.445 0.715 1.837 1.377s0.531 1.47 0.325 2.273c-0.176 0.688-0.575 1.256-1.105 1.652-0.314 0.235-0.675 0.409-1.063 0.511-0.534 0.14-0.854 0.687-0.713 1.221s0.687 0.854 1.221 0.713c0.637-0.167 1.232-0.455 1.752-0.844 0.884-0.66 1.552-1.613 1.845-2.758 0.342-1.337 0.11-2.689-0.542-3.788s-1.725-1.953-3.062-2.296c-0.535-0.137-1.080 0.186-1.217 0.721s0.186 1.080 0.721 1.217z"></path>
    </symbol>
    <symbol id="icon-bed-double" viewBox="0 0 24 24">
      <path d="M20 3.5h-16c-1.657 0-3 1.343-3 3v0 13c0 0.552 0.448 1 1 1v0h4c0.346-0.002 0.649-0.179 0.828-0.446l0.002-0.004 1.71-2.55h6.92l1.71 2.55c0.181 0.271 0.484 0.448 0.83 0.45h4c0.552 0 1-0.448 1-1v0-13c0-1.657-1.343-3-3-3v0zM21 18.5h-2.46l-1.71-2.5c-0.17-0.291-0.476-0.487-0.828-0.5l-0.002-0h-8c-0.346 0.002-0.649 0.179-0.828 0.446l-0.002 0.004-1.71 2.55h-2.46v-5h18zM7 11.5v-1c0-0.552 0.448-1 1-1v0h2c0.552 0 1 0.448 1 1v0 1zM13 11.5v-1c0-0.552 0.448-1 1-1v0h2c0.552 0 1 0.448 1 1v0 1zM21 11.5h-2v-1c0-1.657-1.343-3-3-3v0h-2c-0.772 0.005-1.474 0.3-2.002 0.782l0.002-0.002c-0.526-0.48-1.228-0.775-1.999-0.78h-2.001c-1.657 0-3 1.343-3 3v0 1h-2v-5c0-0.552 0.448-1 1-1v0h16c0.552 0 1 0.448 1 1v0z"></path>
    </symbol>
    <symbol id="icon-bath" viewBox="0 0 24 24">
      <path d="M22 12h-17v-5.59c-0-0.006-0-0.012-0-0.019 0-0.748 0.416-1.399 1.030-1.734l0.010-0.005c0.275-0.152 0.602-0.241 0.95-0.241 0.069 0 0.138 0.004 0.206 0.010l-0.008-0.001c-0.112 0.327-0.176 0.703-0.176 1.095 0 0.96 0.387 1.829 1.014 2.46l1.060 1.060c0.181 0.181 0.431 0.293 0.707 0.293s0.526-0.112 0.707-0.293l3.535-3.535c0.181-0.181 0.293-0.431 0.293-0.707s-0.112-0.526-0.293-0.707l-1.061-1.061c-0.632-0.629-1.503-1.018-2.465-1.018-0.777 0-1.494 0.253-2.074 0.682l0.010-0.007c-0.431-0.173-0.93-0.274-1.452-0.274-2.205 0-3.992 1.787-3.992 3.992 0 0.003 0 0.006 0 0.009v-0 5.59h-1c-0.552 0-1 0.448-1 1s0.448 1 1 1v0h1v3c0.004 1.294 0.828 2.394 1.979 2.809l0.021 0.007v1.184c0 0.552 0.448 1 1 1s1-0.448 1-1v0-1h10v1c0 0.552 0.448 1 1 1s1-0.448 1-1v0-1.184c1.172-0.422 1.996-1.522 2-2.815v-3h1c0.552 0 1-0.448 1-1s-0.448-1-1-1v0zM9.439 4.439c0.272-0.271 0.647-0.438 1.061-0.438s0.789 0.168 1.061 0.438l0.353 0.354-2.121 2.121-0.354-0.354c-0.271-0.272-0.439-0.647-0.439-1.061s0.168-0.789 0.439-1.061l-0 0zM19 17c-0 0.552-0.448 1-1 1h-12c-0.552-0-1-0.448-1-1v-3h14z"></path>
    </symbol>
    <symbol id="icon-wifi" viewBox="0 0 24 24">
      <path d="M5.64 13.318c1.962-1.634 4.361-2.389 6.733-2.305 2.167 0.077 4.31 0.855 6.071 2.308 0.426 0.351 1.056 0.291 1.408-0.135s0.291-1.056-0.135-1.408c-2.107-1.738-4.674-2.671-7.272-2.763-2.846-0.101-5.731 0.806-8.084 2.767-0.424 0.353-0.482 0.984-0.128 1.408s0.984 0.482 1.408 0.128zM2.081 9.75c2.937-2.589 6.6-3.82 10.236-3.737 3.443 0.079 6.859 1.337 9.604 3.739 0.416 0.364 1.047 0.322 1.411-0.094s0.322-1.047-0.094-1.411c-3.108-2.72-6.977-4.145-10.876-4.234-4.119-0.094-8.275 1.303-11.603 4.237-0.415 0.365-0.454 0.997-0.089 1.411s0.997 0.454 1.411 0.089zM9.109 16.925c0.99-0.704 2.146-0.995 3.274-0.906 0.891 0.070 1.765 0.378 2.523 0.909 0.452 0.317 1.076 0.207 1.393-0.245s0.207-1.076-0.245-1.393c-1.053-0.738-2.269-1.167-3.513-1.265-1.58-0.125-3.204 0.285-4.59 1.269-0.45 0.32-0.556 0.944-0.236 1.394s0.944 0.556 1.394 0.236zM12 21c0.552 0 1-0.448 1-1s-0.448-1-1-1-1 0.448-1 1 0.448 1 1 1z"></path>
    </symbol>
    <symbol id="icon-x" viewBox="0 0 24 24">
      <path d="M5.293 6.707l5.293 5.293-5.293 5.293c-0.391 0.391-0.391 1.024 0 1.414s1.024 0.391 1.414 0l5.293-5.293 5.293 5.293c0.391 0.391 1.024 0.391 1.414 0s0.391-1.024 0-1.414l-5.293-5.293 5.293-5.293c0.391-0.391 0.391-1.024 0-1.414s-1.024-0.391-1.414 0l-5.293 5.293-5.293-5.293c-0.391-0.391-1.024-0.391-1.414 0s-0.391 1.024 0 1.414z"></path>
    </symbol>
    <symbol id="icon-log-in" viewBox="0 0 24 24">
      <path d="M15 4h4c0.276 0 0.525 0.111 0.707 0.293s0.293 0.431 0.293 0.707v14c0 0.276-0.111 0.525-0.293 0.707s-0.431 0.293-0.707 0.293h-4c-0.552 0-1 0.448-1 1s0.448 1 1 1h4c0.828 0 1.58-0.337 2.121-0.879s0.879-1.293 0.879-2.121v-14c0-0.828-0.337-1.58-0.879-2.121s-1.293-0.879-2.121-0.879h-4c-0.552 0-1 0.448-1 1s0.448 1 1 1zM12.586 11h-9.586c-0.552 0-1 0.448-1 1s0.448 1 1 1h9.586l-3.293 3.293c-0.391 0.391-0.391 1.024 0 1.414s1.024 0.391 1.414 0l5-5c0.096-0.096 0.168-0.206 0.217-0.324s0.076-0.247 0.076-0.383c0-0.13-0.025-0.261-0.076-0.383-0.049-0.118-0.121-0.228-0.217-0.324l-5-5c-0.391-0.391-1.024-0.391-1.414 0s-0.391 1.024 0 1.414z"></path>
    </symbol>
    <symbol id="icon-log-out" viewBox="0 0 24 24">
      <path d="M9 20h-4c-0.276 0-0.525-0.111-0.707-0.293s-0.293-0.431-0.293-0.707v-14c0-0.276 0.111-0.525 0.293-0.707s0.431-0.293 0.707-0.293h4c0.552 0 1-0.448 1-1s-0.448-1-1-1h-4c-0.828 0-1.58 0.337-2.121 0.879s-0.879 1.293-0.879 2.121v14c0 0.828 0.337 1.58 0.879 2.121s1.293 0.879 2.121 0.879h4c0.552 0 1-0.448 1-1s-0.448-1-1-1zM18.586 11h-9.586c-0.552 0-1 0.448-1 1s0.448 1 1 1h9.586l-3.293 3.293c-0.391 0.391-0.391 1.024 0 1.414s1.024 0.391 1.414 0l5-5c0.092-0.092 0.166-0.202 0.217-0.324 0.15-0.362 0.078-0.795-0.217-1.090l-5-5c-0.391-0.391-1.024-0.391-1.414 0s-0.391 1.024 0 1.414z"></path>
    </symbol>
    <symbol id="icon-download" viewBox="0 0 24 24">
      <path d="M20 15v4c0 0.276-0.111 0.525-0.293 0.707s-0.431 0.293-0.707 0.293h-14c-0.276 0-0.525-0.111-0.707-0.293s-0.293-0.431-0.293-0.707v-4c0-0.552-0.448-1-1-1s-1 0.448-1 1v4c0 0.828 0.337 1.58 0.879 2.121s1.293 0.879 2.121 0.879h14c0.828 0 1.58-0.337 2.121-0.879s0.879-1.293 0.879-2.121v-4c0-0.552-0.448-1-1-1s-1 0.448-1 1zM13 12.586v-9.586c0-0.552-0.448-1-1-1s-1 0.448-1 1v9.586l-3.293-3.293c-0.391-0.391-1.024-0.391-1.414 0s-0.391 1.024 0 1.414l5 5c0.092 0.092 0.202 0.166 0.324 0.217s0.253 0.076 0.383 0.076c0.256 0 0.512-0.098 0.707-0.293l5-5c0.391-0.391 0.391-1.024 0-1.414s-1.024-0.391-1.414 0z"></path>
    </symbol>
    <symbol id="icon-chevron-down" viewBox="0 0 24 24">
      <path d="M5.293 9.707l6 6c0.391 0.391 1.024 0.391 1.414 0l6-6c0.391-0.391 0.391-1.024 0-1.414s-1.024-0.391-1.414 0l-5.293 5.293-5.293-5.293c-0.391-0.391-1.024-0.391-1.414 0s-0.391 1.024 0 1.414z"></path>
    </symbol>
    <symbol id="icon-chevron-left" viewBox="0 0 24 24">
      <path d="M15.707 17.293l-5.293-5.293 5.293-5.293c0.391-0.391 0.391-1.024 0-1.414s-1.024-0.391-1.414 0l-6 6c-0.391 0.391-0.391 1.024 0 1.414l6 6c0.391 0.391 1.024 0.391 1.414 0s0.391-1.024 0-1.414z"></path>
    </symbol>
    <symbol id="icon-chevron-right" viewBox="0 0 24 24">
      <path d="M9.707 18.707l6-6c0.391-0.391 0.391-1.024 0-1.414l-6-6c-0.391-0.391-1.024-0.391-1.414 0s-0.391 1.024 0 1.414l5.293 5.293-5.293 5.293c-0.391 0.391-0.391 1.024 0 1.414s1.024 0.391 1.414 0z"></path>
    </symbol>
    <symbol id="icon-clock" viewBox="0 0 24 24">
      <path d="M23 12c0-3.037-1.232-5.789-3.222-7.778s-4.741-3.222-7.778-3.222-5.789 1.232-7.778 3.222-3.222 4.741-3.222 7.778 1.232 5.789 3.222 7.778 4.741 3.222 7.778 3.222 5.789-1.232 7.778-3.222 3.222-4.741 3.222-7.778zM21 12c0 2.486-1.006 4.734-2.636 6.364s-3.878 2.636-6.364 2.636-4.734-1.006-6.364-2.636-2.636-3.878-2.636-6.364 1.006-4.734 2.636-6.364 3.878-2.636 6.364-2.636 4.734 1.006 6.364 2.636 2.636 3.878 2.636 6.364zM11 6v6c0 0.389 0.222 0.727 0.553 0.894l4 2c0.494 0.247 1.095 0.047 1.342-0.447s0.047-1.095-0.447-1.342l-3.448-1.723v-5.382c0-0.552-0.448-1-1-1s-1 0.448-1 1z"></path>
    </symbol>
    <symbol id="icon-share-alt" viewBox="0 0 24 24">
      <path d="M18 14c-1.241 0.008-2.346 0.581-3.074 1.473l-0.006 0.007-5.1-2.35c0.114-0.337 0.18-0.726 0.18-1.13s-0.066-0.793-0.187-1.156l0.007 0.026 5.1-2.35c0.739 0.887 1.844 1.448 3.080 1.448 2.209 0 4-1.791 4-4s-1.791-4-4-4c-2.209 0-4 1.791-4 4 0 0.011 0 0.023 0 0.034v-0.002c0.003 0.253 0.029 0.498 0.074 0.736l-0.004-0.026-5.28 2.43c-0.721-0.705-1.708-1.14-2.796-1.14-2.209 0-4 1.791-4 4s1.791 4 4 4c1.089 0 2.076-0.435 2.797-1.141l-0.001 0.001 5.28 2.43c-0.041 0.212-0.067 0.457-0.070 0.707l-0 0.003c0 2.209 1.791 4 4 4s4-1.791 4-4c0-2.209-1.791-4-4-4v0zM18 4c1.105 0 2 0.895 2 2s-0.895 2-2 2c-1.105 0-2-0.895-2-2v0c0-1.105 0.895-2 2-2v0zM6 14c-1.105 0-2-0.895-2-2s0.895-2 2-2c1.105 0 2 0.895 2 2v0c0 1.105-0.895 2-2 2v0zM18 20c-1.105 0-2-0.895-2-2s0.895-2 2-2c1.105 0 2 0.895 2 2v0c0 1.105-0.895 2-2 2v0z"></path>
    </symbol>
    <symbol id="icon-plus" viewBox="0 0 24 24">
      <path d="M5 13h6v6c0 0.552 0.448 1 1 1s1-0.448 1-1v-6h6c0.552 0 1-0.448 1-1s-0.448-1-1-1h-6v-6c0-0.552-0.448-1-1-1s-1 0.448-1 1v6h-6c-0.552 0-1 0.448-1 1s0.448 1 1 1z"></path>
    </symbol>
    <symbol id="icon-minus" viewBox="0 0 24 24">
      <path d="M5 13h14c0.552 0 1-0.448 1-1s-0.448-1-1-1h-14c-0.552 0-1 0.448-1 1s0.448 1 1 1z"></path>
    </symbol>
    <symbol id="icon-arrow-right" viewBox="0 0 24 24">
      <path d="M11.293 5.707l5.293 5.293h-11.586c-0.552 0-1 0.448-1 1s0.448 1 1 1h11.586l-5.293 5.293c-0.391 0.391-0.391 1.024 0 1.414s1.024 0.391 1.414 0l7-7c0.092-0.092 0.166-0.202 0.217-0.324 0.101-0.245 0.101-0.521 0-0.766-0.049-0.118-0.121-0.228-0.217-0.324l-7-7c-0.391-0.391-1.024-0.391-1.414 0s-0.391 1.024 0 1.414z"></path>
    </symbol>
    <symbol id="icon-utensils" viewBox="0 0 24 24">
      <path d="M19 2c-0.552 0-1 0.448-1 1v0 5.46l-1 0.67v-6.13c0-0.552-0.448-1-1-1s-1 0.448-1 1v0 6.13l-1-0.67v-5.46c0-0.552-0.448-1-1-1s-1 0.448-1 1v0 6c0.002 0.346 0.179 0.649 0.446 0.828l0.004 0.002 2.55 1.71v9.46c0 0.552 0.448 1 1 1s1-0.448 1-1v0-9.46l2.55-1.71c0.271-0.181 0.448-0.484 0.45-0.83v-6c0-0.552-0.448-1-1-1v0zM9 2v0c-2.761 0-5 2.239-5 5v0 6c0 0.552 0.448 1 1 1v0h3v7c0 0.552 0.448 1 1 1s1-0.448 1-1v0-18c0-0.552-0.448-1-1-1v0zM8 12h-2v-5c0-0 0-0.001 0-0.002 0-1.298 0.825-2.404 1.979-2.822l0.021-0.007z"></path>
    </symbol>
    <symbol id="icon-basketball" viewBox="0 0 24 24">
      <path d="M12 2c-3.509 0.004-6.595 1.814-8.376 4.551l-0.024 0.039c-0.984 1.521-1.568 3.381-1.568 5.376 0 5.523 4.477 10 10 10 2.364 0 4.536-0.82 6.248-2.192l-0.020 0.015c2.283-1.848 3.73-4.65 3.73-7.79 0-5.519-4.471-9.994-9.989-10h-0.001zM14 4.26c2.818 0.747 4.993 2.922 5.727 5.684l0.013 0.056c-1.757 0.051-3.385 0.557-4.784 1.405l0.044-0.025c-0.72-0.815-1.506-1.54-2.36-2.181l-0.040-0.029c0.845-1.405 1.36-3.093 1.4-4.899l0-0.011zM12 4c-0.004 1.505-0.427 2.909-1.16 4.104l0.020-0.034c-0.15-0.080-0.29-0.17-0.44-0.24-1.18-0.637-2.547-1.144-3.988-1.452l-0.102-0.018c1.449-1.457 3.454-2.359 5.67-2.36h0zM5 8.16c1.676 0.238 3.19 0.744 4.564 1.476l-0.074-0.036 0.13 0.080c-1.435 1.433-3.416 2.32-5.605 2.32-0.005 0-0.011 0-0.016-0h0.001c0.006-1.41 0.376-2.733 1.021-3.88l-0.021 0.040zM10 19.74c-2.818-0.747-4.993-2.922-5.727-5.684l-0.013-0.056c2.805-0.064 5.312-1.285 7.073-3.203l0.007-0.007c0.742 0.552 1.397 1.143 1.991 1.79l0.009 0.010c-1.98 1.771-3.248 4.304-3.34 7.134l-0 0.016zM12 20c0.005-2.309 0.987-4.388 2.555-5.845l0.005-0.005c0.060 0.080 0.12 0.15 0.17 0.23 0.795 1.2 1.426 2.593 1.818 4.082l0.022 0.098c-1.269 0.901-2.85 1.44-4.557 1.44-0.005 0-0.009 0-0.014-0h0.001zM18.21 17c-0.476-1.43-1.086-2.671-1.837-3.81l0.037 0.060-0.21-0.25c1.095-0.62 2.403-0.99 3.797-1l0.003-0c-0.011 1.903-0.684 3.647-1.801 5.014l0.011-0.014z"></path>
    </symbol>
    <symbol id="icon-mailbox-alt" viewBox="0 0 24 24">
      <path d="M11 13h2c0.552 0 1-0.448 1-1s-0.448-1-1-1v0h-2c-0.552 0-1 0.448-1 1s0.448 1 1 1v0zM19 20h-1v-11h1c0.552 0 1-0.448 1-1s-0.448-1-1-1v0h-1.090c-0.511-2.839-2.962-4.965-5.91-4.965s-5.399 2.126-5.905 4.928l-0.005 0.036h-1.090c-0.552 0-1 0.448-1 1s0.448 1 1 1v0h1v11h-1c-0.552 0-1 0.448-1 1s0.448 1 1 1v0h14c0.552 0 1-0.448 1-1s-0.448-1-1-1v0zM12 4c1.848 0.006 3.401 1.265 3.854 2.972l0.006 0.028h-7.72c0.459-1.735 2.012-2.994 3.859-3h0.001zM16 20h-8v-2h8zM16 16h-8v-7h8z"></path>
    </symbol>
    <symbol id="icon-kid" viewBox="0 0 24 24">
      <path d="M10 10c0-0.552-0.448-1-1-1s-1 0.448-1 1c0 0.552 0.448 1 1 1v0c0.552 0 1-0.448 1-1v0zM14.5 14.060c-0.145-0.086-0.319-0.137-0.506-0.137-0.367 0-0.688 0.198-0.862 0.493l-0.003 0.005c-0.228 0.395-0.648 0.657-1.13 0.657s-0.902-0.262-1.127-0.651l-0.003-0.006c-0.176-0.299-0.497-0.497-0.864-0.497-0.186 0-0.361 0.051-0.51 0.14l0.005-0.003c-0.301 0.176-0.5 0.498-0.5 0.866 0 0.182 0.048 0.352 0.133 0.499l-0.003-0.005c0.582 1 1.649 1.661 2.87 1.661s2.288-0.661 2.862-1.645l0.008-0.016c0.082-0.142 0.13-0.312 0.13-0.494 0-0.368-0.199-0.69-0.496-0.864l-0.005-0.003zM15 9c-0.552 0-1 0.448-1 1s0.448 1 1 1c0.552 0 1-0.448 1-1v0c0-0.552-0.448-1-1-1v0zM12 2c-5.523 0-10 4.477-10 10s4.477 10 10 10c5.523 0 10-4.477 10-10v0c0-5.523-4.477-10-10-10v0zM12 20c-0.010 0-0.022 0-0.035 0-4.418 0-8-3.582-8-8 0-3.35 2.059-6.219 4.981-7.411l0.053-0.019c-0.005 0.064-0.008 0.139-0.008 0.215s0.003 0.151 0.008 0.225l-0.001-0.010c0 1.657 1.343 3 3 3v0c0.552 0 1-0.448 1-1s-0.448-1-1-1v0c-0.552 0-1-0.448-1-1s0.448-1 1-1v0c4.418 0 8 3.582 8 8s-3.582 8-8 8v0z"></path>
    </symbol>
    <symbol id="icon-sign-alt" viewBox="0 0 24 24">
      <path d="M21.78 11.88l-2-2.5c-0.184-0.231-0.465-0.378-0.78-0.38h-6v-6c0-0.552-0.448-1-1-1s-1 0.448-1 1v0 1h-6c-0.315 0.001-0.596 0.149-0.778 0.378l-0.002 0.002-2 2.5c-0.134 0.169-0.215 0.385-0.215 0.62s0.081 0.451 0.217 0.622l-0.002-0.002 2 2.5c0.184 0.231 0.465 0.378 0.78 0.38h6v9h-2c-0.552 0-1 0.448-1 1s0.448 1 1 1v0h6c0.552 0 1-0.448 1-1s-0.448-1-1-1v0h-2v-4h6c0.315-0.001 0.596-0.149 0.778-0.378l0.002-0.002 2-2.5c0.134-0.169 0.215-0.385 0.215-0.62s-0.081-0.451-0.217-0.622l0.002 0.002zM11 9h-5.52l-1.2-1.5 1.2-1.5h5.52zM18.52 14h-5.52v-3h5.52l1.2 1.5z"></path>
    </symbol>
    <symbol id="icon-water" viewBox="0 0 24 24">
      <path d="M2.72 7.65c0.214 0.064 0.399 0.145 0.572 0.247l-0.012-0.007c0.586 0.355 1.293 0.565 2.050 0.565s1.464-0.21 2.068-0.575l-0.018 0.010c0.368-0.212 0.809-0.337 1.28-0.337s0.912 0.125 1.293 0.344l-0.013-0.007c0.592 0.344 1.302 0.547 2.060 0.547s1.468-0.203 2.080-0.558l-0.020 0.011c0.368-0.212 0.809-0.337 1.28-0.337s0.912 0.125 1.293 0.344l-0.013-0.007c0.598 0.347 1.314 0.555 2.078 0.56h0.002c0.739-0.002 1.43-0.21 2.017-0.57l-0.017 0.010c0.161-0.095 0.346-0.176 0.542-0.235l0.018-0.005c0.419-0.125 0.72-0.507 0.72-0.96 0-0.552-0.448-1-1-1-0.1 0-0.196 0.015-0.287 0.042l0.007-0.002c-0.381 0.119-0.713 0.272-1.019 0.461l0.019-0.011c-0.301 0.179-0.663 0.284-1.050 0.284s-0.749-0.106-1.060-0.29l0.010 0.005c-0.653-0.373-1.436-0.593-2.27-0.593s-1.617 0.22-2.293 0.605l0.023-0.012c-0.304 0.18-0.67 0.286-1.060 0.286s-0.756-0.106-1.070-0.291l0.010 0.005c-0.653-0.373-1.436-0.593-2.27-0.593s-1.617 0.22-2.293 0.605l0.023-0.012c-0.301 0.179-0.663 0.284-1.050 0.284s-0.749-0.106-1.060-0.29l0.010 0.005c-0.287-0.178-0.619-0.331-0.968-0.441l-0.032-0.009c-0.084-0.025-0.18-0.040-0.28-0.040-0.552 0-1 0.448-1 1 0 0.453 0.301 0.835 0.713 0.958l0.007 0.002zM20.72 15.73c-0.381 0.119-0.713 0.272-1.019 0.461l0.019-0.011c-0.301 0.179-0.663 0.284-1.050 0.284s-0.749-0.106-1.060-0.29l0.010 0.005c-0.653-0.373-1.436-0.593-2.27-0.593s-1.617 0.22-2.293 0.605l0.023-0.012c-0.304 0.18-0.67 0.286-1.060 0.286s-0.756-0.106-1.070-0.291l0.010 0.005c-0.653-0.373-1.436-0.593-2.27-0.593s-1.617 0.22-2.293 0.605l0.023-0.012c-0.301 0.179-0.663 0.284-1.050 0.284s-0.749-0.106-1.060-0.29l0.010 0.005c-0.287-0.178-0.619-0.331-0.968-0.441l-0.032-0.009c-0.084-0.025-0.18-0.040-0.28-0.040-0.552 0-1 0.448-1 1 0 0.453 0.301 0.835 0.713 0.958l0.007 0.002c0.214 0.064 0.399 0.145 0.572 0.247l-0.012-0.007c0.586 0.355 1.293 0.565 2.050 0.565s1.464-0.21 2.068-0.575l-0.018 0.010c0.368-0.212 0.809-0.337 1.28-0.337s0.912 0.125 1.293 0.344l-0.013-0.007c0.592 0.344 1.302 0.547 2.060 0.547s1.468-0.203 2.080-0.558l-0.020 0.011c0.368-0.212 0.809-0.337 1.28-0.337s0.912 0.125 1.293 0.344l-0.013-0.007c0.598 0.347 1.314 0.555 2.078 0.56h0.002c0.739-0.002 1.43-0.21 2.017-0.57l-0.017 0.010c0.161-0.095 0.346-0.176 0.542-0.235l0.018-0.005c0.419-0.125 0.72-0.507 0.72-0.96 0-0.552-0.448-1-1-1-0.1 0-0.196 0.015-0.287 0.042l0.007-0.002zM20.72 10.73c-0.381 0.119-0.713 0.272-1.019 0.461l0.019-0.011c-0.301 0.179-0.663 0.284-1.050 0.284s-0.749-0.106-1.060-0.29l0.010 0.005c-0.653-0.373-1.436-0.593-2.27-0.593s-1.617 0.22-2.293 0.605l0.023-0.012c-0.304 0.18-0.67 0.286-1.060 0.286s-0.756-0.106-1.070-0.291l0.010 0.005c-0.653-0.373-1.436-0.593-2.27-0.593s-1.617 0.22-2.293 0.605l0.023-0.012c-0.301 0.179-0.663 0.284-1.050 0.284s-0.749-0.106-1.060-0.29l0.010 0.005c-0.287-0.178-0.619-0.331-0.968-0.441l-0.032-0.009c-0.105-0.041-0.226-0.064-0.353-0.064-0.461 0-0.85 0.313-0.965 0.737l-0.002 0.007c-0.025 0.084-0.040 0.18-0.040 0.28 0 0.453 0.301 0.835 0.713 0.958l0.007 0.002c0.214 0.064 0.399 0.145 0.572 0.247l-0.012-0.007c0.586 0.355 1.293 0.565 2.050 0.565s1.464-0.21 2.068-0.575l-0.018 0.010c0.368-0.212 0.809-0.337 1.28-0.337s0.912 0.125 1.293 0.344l-0.013-0.007c0.592 0.344 1.302 0.547 2.060 0.547s1.468-0.203 2.080-0.558l-0.020 0.011c0.368-0.212 0.809-0.337 1.28-0.337s0.912 0.125 1.293 0.344l-0.013-0.007c0.598 0.347 1.314 0.555 2.078 0.56h0.002c0.739-0.002 1.43-0.21 2.017-0.57l-0.017 0.010c0.161-0.095 0.346-0.176 0.542-0.235l0.018-0.005c0.419-0.125 0.72-0.507 0.72-0.96 0-0.552-0.448-1-1-1-0.1 0-0.196 0.015-0.287 0.042l0.007-0.002z"></path>
    </symbol>
    <symbol id="icon-trees" viewBox="0 0 24 24">
      <path d="M16.5 5c-0.001 0-0.003 0-0.004 0-0.922 0-1.783 0.257-2.518 0.702l0.022-0.012c-0.949-2.139-3.054-3.604-5.501-3.604-3.283 0-5.951 2.637-5.999 5.909l-0 0.005v4c0.003 2.958 2.146 5.414 4.964 5.905l0.036 0.005v3.090c0 0.552 0.448 1 1 1s1-0.448 1-1v0-3.090c1.069-0.19 2.010-0.634 2.791-1.269l-0.011 0.009c0.718 1.138 1.854 1.957 3.187 2.244l0.033 0.006v2.1c0 0.552 0.448 1 1 1s1-0.448 1-1v0-2.1c2.299-0.482 4-2.492 4-4.899 0-0 0-0.001 0-0.001v0-4c0-2.761-2.239-5-5-5v0zM11.5 10v4c0.011 0.212 0.032 0.408 0.064 0.6l-0.004-0.030c-0.525 0.623-1.229 1.080-2.032 1.294l-0.028 0.006v-2.87c0-0.552-0.448-1-1-1s-1 0.448-1 1v0 2.86c-1.735-0.459-2.994-2.012-3-3.859v-4.001c-0-0.004-0-0.009-0-0.013 0-2.209 1.791-4 4-4 1.105 0 2.106 0.448 2.83 1.173l0 0c0.525 0.532 0.9 1.213 1.056 1.975l0.004 0.025c-0.556 0.793-0.888 1.777-0.89 2.84v0zM19.5 14c-0.004 1.295-0.827 2.397-1.979 2.813l-0.021 0.007v-3.82c0-0.552-0.448-1-1-1s-1 0.448-1 1v0 3.82c-1.173-0.423-1.996-1.525-2-2.82v-4c0-1.657 1.343-3 3-3s3 1.343 3 3v0z"></path>
    </symbol>
    <symbol id="icon-bed" viewBox="0 0 24 24">
      <path d="M7 12.5c1.657 0 3-1.343 3-3s-1.343-3-3-3c-1.657 0-3 1.343-3 3v0c0 1.657 1.343 3 3 3v0zM7 8.5c0.552 0 1 0.448 1 1s-0.448 1-1 1c-0.552 0-1-0.448-1-1v0c0-0.552 0.448-1 1-1v0zM20 6.5h-8c-0.552 0-1 0.448-1 1v0 6h-8v-8c0-0.552-0.448-1-1-1s-1 0.448-1 1v0 13c0 0.552 0.448 1 1 1s1-0.448 1-1v0-3h18v3c0 0.552 0.448 1 1 1s1-0.448 1-1v0-9c0-1.657-1.343-3-3-3v0zM21 13.5h-8v-5h7c0.552 0 1 0.448 1 1v0z"></path>
    </symbol>
    <symbol id="icon-help-circle" viewBox="0 0 24 24">
      <path d="M23 12c0-3.037-1.232-5.789-3.222-7.778s-4.741-3.222-7.778-3.222-5.789 1.232-7.778 3.222-3.222 4.741-3.222 7.778 1.232 5.789 3.222 7.778 4.741 3.222 7.778 3.222 5.789-1.232 7.778-3.222 3.222-4.741 3.222-7.778zM21 12c0 2.486-1.006 4.734-2.636 6.364s-3.878 2.636-6.364 2.636-4.734-1.006-6.364-2.636-2.636-3.878-2.636-6.364 1.006-4.734 2.636-6.364 3.878-2.636 6.364-2.636 4.734 1.006 6.364 2.636 2.636 3.878 2.636 6.364zM10.033 9.332c0.183-0.521 0.559-0.918 1.022-1.14s1.007-0.267 1.528-0.083c0.458 0.161 0.819 0.47 1.050 0.859 0.183 0.307 0.284 0.665 0.286 1.037 0 0.155-0.039 0.309-0.117 0.464-0.080 0.16-0.203 0.325-0.368 0.49-0.709 0.709-1.831 1.092-1.831 1.092-0.524 0.175-0.807 0.741-0.632 1.265s0.741 0.807 1.265 0.632c0 0 1.544-0.506 2.613-1.575 0.279-0.279 0.545-0.614 0.743-1.010 0.2-0.4 0.328-0.858 0.328-1.369-0.004-0.731-0.204-1.437-0.567-2.049-0.463-0.778-1.19-1.402-2.105-1.724-1.042-0.366-2.135-0.275-3.057 0.167s-1.678 1.238-2.044 2.28c-0.184 0.521 0.090 1.092 0.611 1.275s1.092-0.091 1.275-0.611zM12 18c0.552 0 1-0.448 1-1s-0.448-1-1-1-1 0.448-1 1 0.448 1 1 1z"></path>
    </symbol>
    <symbol id="icon-filter" viewBox="0 0 24 24">
      <path d="M19.845 4l-6.609 7.814c-0.147 0.173-0.236 0.399-0.236 0.646v6.922l-2-1v-5.922c0.001-0.227-0.077-0.457-0.236-0.646l-6.609-7.814zM22 2h-20c-0.552 0-1 0.448-1 1 0 0.247 0.089 0.473 0.236 0.646l7.764 9.18v6.174c0 0.389 0.222 0.727 0.553 0.894l4 2c0.494 0.247 1.095 0.047 1.342-0.447 0.072-0.146 0.106-0.301 0.105-0.447v-8.174l7.764-9.18c0.357-0.422 0.304-1.053-0.118-1.409-0.189-0.16-0.419-0.238-0.646-0.237z"></path>
    </symbol>
    <symbol id="icon-swimmer" viewBox="0 0 24 24">
      <path d="M17 9.28c1.105 0 2-0.895 2-2s-0.895-2-2-2c-1.105 0-2 0.895-2 2v0c0 1.105 0.895 2 2 2v0zM2.71 13.92c0.219 0.071 0.407 0.155 0.584 0.258l-0.014-0.008c0.587 0.349 1.294 0.556 2.050 0.556s1.463-0.206 2.069-0.566l-0.019 0.010c0.369-0.21 0.81-0.334 1.28-0.334s0.911 0.124 1.293 0.341l-0.013-0.007 0.21 0.1c0.529 0.263 1.153 0.418 1.812 0.418 0.757 0 1.467-0.203 2.078-0.558l-0.020 0.011c0.369-0.21 0.81-0.334 1.28-0.334s0.911 0.124 1.293 0.341l-0.013-0.007c0.598 0.347 1.314 0.555 2.078 0.56h0.002c0.739-0.008 1.428-0.215 2.018-0.57l-0.018 0.010c0.163-0.095 0.351-0.179 0.549-0.244l0.021-0.006c0.522-0.037 0.931-0.47 0.931-0.998 0-0.552-0.448-1-1-1-0.165 0-0.32 0.040-0.457 0.11l0.006-0.003c-0.382 0.12-0.713 0.269-1.022 0.452l0.022-0.012c-0.301 0.177-0.663 0.281-1.050 0.281s-0.749-0.104-1.060-0.287l0.010 0.005c-0.653-0.375-1.436-0.596-2.27-0.596s-1.617 0.221-2.293 0.608l0.023-0.012c-0.078 0.039-0.174 0.080-0.272 0.115l-0.018 0.005 1.56-1.56c0.034-0.043 0.064-0.093 0.088-0.145l0.002-0.005c0.044-0.047 0.083-0.1 0.118-0.156l0.002-0.004c0.002-0.028 0.003-0.062 0.003-0.095s-0.001-0.067-0.004-0.099l0 0.004c0.003-0.028 0.004-0.062 0.004-0.095s-0.002-0.067-0.005-0.099l0 0.004c0.002-0.027 0.004-0.058 0.004-0.090s-0.001-0.063-0.004-0.094l0 0.004c0.003-0.028 0.004-0.062 0.004-0.095s-0.002-0.067-0.005-0.099l0 0.004c-0.034-0.066-0.067-0.122-0.103-0.175l0.003 0.005c-0.028-0.061-0.061-0.114-0.101-0.161l0.001 0.001-3.070-3.33s0 0 0 0c-0.080-0.087-0.172-0.16-0.274-0.217l-0.006-0.003c-0.032-0.004-0.068-0.007-0.105-0.007s-0.073 0.003-0.109 0.007l0.004-0c-0.026-0.004-0.055-0.007-0.085-0.007s-0.059 0.002-0.088 0.007l0.003-0c-0.098-0.041-0.213-0.064-0.332-0.064-0.031 0-0.061 0.002-0.092 0.005l0.004-0-3.54 1.32c-0.388 0.143-0.659 0.51-0.659 0.94 0 0.122 0.022 0.239 0.062 0.347l-0.002-0.007c0.143 0.388 0.51 0.659 0.94 0.659 0.122 0 0.239-0.022 0.347-0.062l-0.007 0.002 2.93-1.070 2 2.12-1.9 1.9c-0.496-0.199-1.072-0.314-1.674-0.314-0.833 0-1.614 0.22-2.289 0.606l0.023-0.012c-0.301 0.177-0.663 0.281-1.050 0.281s-0.749-0.104-1.060-0.287l0.010 0.005c-0.287-0.171-0.618-0.32-0.966-0.431l-0.034-0.009c-0.104-0.040-0.224-0.063-0.35-0.063-0.552 0-1 0.448-1 1 0 0.471 0.325 0.865 0.763 0.972l0.007 0.001zM20.71 17.010c-0.382 0.12-0.713 0.269-1.022 0.452l0.022-0.012c-0.301 0.177-0.663 0.281-1.050 0.281s-0.749-0.104-1.060-0.287l0.010 0.005c-0.653-0.375-1.436-0.596-2.27-0.596s-1.617 0.221-2.293 0.608l0.023-0.012c-0.304 0.18-0.67 0.286-1.060 0.286s-0.756-0.106-1.070-0.291l0.010 0.005c-0.653-0.375-1.436-0.596-2.27-0.596s-1.617 0.221-2.293 0.608l0.023-0.012c-0.301 0.177-0.663 0.281-1.050 0.281s-0.749-0.104-1.060-0.287l0.010 0.005c-0.287-0.171-0.618-0.32-0.966-0.431l-0.034-0.009c-0.104-0.040-0.224-0.063-0.35-0.063-0.552 0-1 0.448-1 1 0 0.471 0.325 0.865 0.763 0.972l0.007 0.001c0.219 0.071 0.407 0.155 0.584 0.258l-0.014-0.008c0.587 0.349 1.294 0.556 2.050 0.556s1.463-0.206 2.069-0.566l-0.019 0.010c0.369-0.21 0.81-0.334 1.28-0.334s0.911 0.124 1.293 0.341l-0.013-0.007c0.592 0.344 1.302 0.547 2.060 0.547s1.468-0.203 2.080-0.558l-0.020 0.011c0.369-0.21 0.81-0.334 1.28-0.334s0.911 0.124 1.293 0.341l-0.013-0.007c0.598 0.347 1.314 0.555 2.078 0.56h0.002c0.739-0.008 1.428-0.215 2.018-0.57l-0.018 0.010c0.163-0.095 0.351-0.179 0.549-0.244l0.021-0.006c0.416-0.129 0.713-0.51 0.713-0.96 0-0.554-0.449-1.003-1.003-1.003-0.103 0-0.203 0.016-0.297 0.045l0.007-0.002z"></path>
    </symbol>
    <symbol id="icon-arrow-left" viewBox="0 0 24 24">
      <path d="M12.707 18.293l-5.293-5.293h11.586c0.552 0 1-0.448 1-1s-0.448-1-1-1h-11.586l5.293-5.293c0.391-0.391 0.391-1.024 0-1.414s-1.024-0.391-1.414 0l-7 7c-0.096 0.096-0.168 0.206-0.217 0.324-0.051 0.122-0.076 0.253-0.076 0.383 0 0.256 0.098 0.512 0.293 0.707l7 7c0.391 0.391 1.024 0.391 1.414 0s0.391-1.024 0-1.414z"></path>
    </symbol>
    <symbol id="icon-info-circle" viewBox="0 0 24 24">
      <path d="M12 2c-5.523 0-10 4.477-10 10s4.477 10 10 10c5.523 0 10-4.477 10-10v0c-0.006-5.52-4.48-9.994-9.999-10h-0.001zM12 20c-4.418 0-8-3.582-8-8s3.582-8 8-8c4.418 0 8 3.582 8 8v0c-0.005 4.416-3.584 7.995-8 8h-0zM12 11.5c-0.552 0-1 0.448-1 1v0 3c0 0.552 0.448 1 1 1s1-0.448 1-1v0-3c0-0.552-0.448-1-1-1v0zM12 7.5c-0.69 0-1.25 0.56-1.25 1.25s0.56 1.25 1.25 1.25c0.69 0 1.25-0.56 1.25-1.25v0c0-0.69-0.56-1.25-1.25-1.25v0z" />
    </symbol>
    <symbol id="icon-exclamation-circle" viewBox="0 0 24 24">
      <path d="M12 14c-0.69 0-1.25 0.56-1.25 1.25s0.56 1.25 1.25 1.25c0.69 0 1.25-0.56 1.25-1.25v0c0-0.69-0.56-1.25-1.25-1.25v0zM12 12.5c0.552 0 1-0.448 1-1v0-3c0-0.552-0.448-1-1-1s-1 0.448-1 1v0 3c0 0.552 0.448 1 1 1v0zM12 2c-5.523 0-10 4.477-10 10s4.477 10 10 10c5.523 0 10-4.477 10-10v0c-0.006-5.52-4.48-9.994-9.999-10h-0.001zM12 20c-4.418 0-8-3.582-8-8s3.582-8 8-8c4.418 0 8 3.582 8 8v0c-0.005 4.416-3.584 7.995-8 8h-0z" />
    </symbol>
    <symbol id="icon-check-circle" viewBox="0 0 24 24">
      <path d="M14.72 8.79l-4.29 4.3-1.65-1.65c-0.184-0.215-0.456-0.35-0.76-0.35-0.552 0-1 0.448-1 1 0 0.303 0.135 0.575 0.348 0.758l0.001 0.001 2.35 2.36c0.181 0.179 0.43 0.29 0.704 0.29 0.002 0 0.004 0 0.006-0h-0c0.273-0.001 0.52-0.112 0.7-0.29l5-5c0.183-0.181 0.296-0.432 0.296-0.71s-0.113-0.529-0.296-0.71l-0-0c-0.181-0.18-0.43-0.291-0.705-0.291s-0.524 0.111-0.705 0.291l0-0zM12 2c-5.523 0-10 4.477-10 10s4.477 10 10 10c5.523 0 10-4.477 10-10v0c0-5.523-4.477-10-10-10v0zM12 20c-4.418 0-8-3.582-8-8s3.582-8 8-8c4.418 0 8 3.582 8 8v0c0 4.418-3.582 8-8 8v0z" />
    </symbol>
    <symbol id="icon-question-circle" viewBox="0 0 24 24">
      <path d="M11.29 15.29c-0.041 0.045-0.080 0.094-0.117 0.145l-0.003 0.005c-0.036 0.052-0.066 0.111-0.088 0.175l-0.002 0.005c-0.027 0.052-0.048 0.112-0.059 0.176l-0.001 0.004c-0.002 0.030-0.004 0.065-0.004 0.1s0.001 0.070 0.004 0.105l-0-0.005c-0 0.006-0 0.014-0 0.022 0 0.13 0.030 0.253 0.082 0.363l-0.002-0.005c0.093 0.252 0.288 0.447 0.534 0.538l0.006 0.002c0.112 0.051 0.242 0.080 0.38 0.080s0.268-0.030 0.386-0.083l-0.006 0.002c0.252-0.093 0.447-0.288 0.538-0.534l0.002-0.006c0.038-0.102 0.061-0.22 0.061-0.343 0-0.013-0-0.026-0.001-0.039l0 0.002c0-0.002 0-0.004 0-0.006 0-0.275-0.111-0.524-0.29-0.704l0 0c-0.181-0.183-0.432-0.296-0.71-0.296s-0.529 0.113-0.71 0.296l-0 0zM12 2c-5.523 0-10 4.477-10 10s4.477 10 10 10c5.523 0 10-4.477 10-10v0c0-5.523-4.477-10-10-10v0zM12 20c-4.418 0-8-3.582-8-8s3.582-8 8-8c4.418 0 8 3.582 8 8v0c0 4.418-3.582 8-8 8v0zM12 7c-0.001 0-0.001 0-0.002 0-1.105 0-2.070 0.597-2.59 1.486l-0.008 0.014c-0.098 0.152-0.156 0.337-0.156 0.536 0 0.552 0.448 1 1 1 0.383 0 0.715-0.215 0.883-0.531l0.003-0.005c0.176-0.301 0.498-0.5 0.866-0.5 0.001 0 0.003 0 0.004 0h-0c0.552 0 1 0.448 1 1s-0.448 1-1 1v0c-0.552 0-1 0.448-1 1v0 1c0 0.552 0.448 1 1 1s1-0.448 1-1v0-0.18c1.163-0.431 1.977-1.53 1.977-2.82 0-1.649-1.33-2.987-2.975-3h-0.001z"></path>
    </symbol>
    <symbol id="icon-parking-circle" viewBox="0 0 24 24">
      <path d="M13 7h-3c-0.552 0-1 0.448-1 1v0 8c0 0.552 0.448 1 1 1s1-0.448 1-1v0-2h2c1.657 0 3-1.343 3-3v0-1c0-1.657-1.343-3-3-3v0zM14 11c0 0.552-0.448 1-1 1v0h-2v-3h2c0.552 0 1 0.448 1 1v0zM12 2c-5.523 0-10 4.477-10 10s4.477 10 10 10c5.523 0 10-4.477 10-10v0c0-5.523-4.477-10-10-10v0zM12 20c-4.418 0-8-3.582-8-8s3.582-8 8-8c4.418 0 8 3.582 8 8v0c0 4.418-3.582 8-8 8v0z"></path>
    </symbol>
    <symbol id="icon-wheelchair" viewBox="0 0 24 24">
      <path d="M12 6.5c1.105 0 2-0.895 2-2s-0.895-2-2-2c-1.105 0-2 0.895-2 2v0c0 1.105 0.895 2 2 2v0zM19.5 20.5h-1v-5c0-0.552-0.448-1-1-1v0h-5v-2h5c0.552 0 1-0.448 1-1s-0.448-1-1-1v0h-5v-2c0-0.552-0.448-1-1-1s-1 0.448-1 1v0 7c0 0.552 0.448 1 1 1v0h5v5c0 0.552 0.448 1 1 1v0h2c0.552 0 1-0.448 1-1s-0.448-1-1-1v0zM12.7 18.9c-0.738 0.976-1.896 1.6-3.2 1.6-2.209 0-4-1.791-4-4v0c0.003-1.628 0.977-3.028 2.375-3.65l0.025-0.010c0.358-0.159 0.603-0.511 0.603-0.92 0-0.554-0.449-1.003-1.003-1.003-0.145 0-0.282 0.031-0.406 0.086l0.006-0.003c-2.136 0.95-3.599 3.053-3.599 5.499 0 3.314 2.686 6 6 6 1.956 0 3.693-0.936 4.788-2.384l0.011-0.015c0.125-0.165 0.2-0.374 0.2-0.6 0-0.552-0.448-1-1-1-0.326 0-0.616 0.156-0.798 0.397l-0.002 0.003z"></path>
    </symbol>
    <symbol id="icon-clipboard-notes" viewBox="0 0 24 24">
      <path d="M13 14h-4c-0.552 0-1 0.448-1 1s0.448 1 1 1v0h4c0.552 0 1-0.448 1-1s-0.448-1-1-1v0zM17 4h-1.18c-0.423-1.173-1.525-1.996-2.82-2h-2c-1.295 0.004-2.397 0.827-2.813 1.979l-0.007 0.021h-1.18c-1.657 0-3 1.343-3 3v0 12c0 1.657 1.343 3 3 3v0h10c1.657 0 3-1.343 3-3v0-12c0-1.657-1.343-3-3-3v0zM10 5c0-0.552 0.448-1 1-1v0h2c0.552 0 1 0.448 1 1v0 1h-4zM18 19c0 0.552-0.448 1-1 1v0h-10c-0.552 0-1-0.448-1-1v0-12c0-0.552 0.448-1 1-1v0h1v1c0 0.552 0.448 1 1 1v0h6c0.552 0 1-0.448 1-1v0-1h1c0.552 0 1 0.448 1 1v0zM15 10h-6c-0.552 0-1 0.448-1 1s0.448 1 1 1v0h6c0.552 0 1-0.448 1-1s-0.448-1-1-1v0z"></path>
    </symbol>
    <symbol id="icon-film" viewBox="0 0 24 24">
      <path d="M16 11h-8v-8h8zM8 13h8v8h-8zM6 6h-3v-1.82c0-0.326 0.131-0.62 0.346-0.834s0.508-0.346 0.834-0.346h1.82zM3 8h3v3h-3zM6 16h-3v-3h3zM3 18h3v3h-1.82c-0.326 0-0.62-0.131-0.834-0.346s-0.346-0.508-0.346-0.834zM21 16h-3v-3h3zM18 18h3v1.82c0 0.326-0.131 0.62-0.346 0.834s-0.508 0.346-0.834 0.346h-1.82zM21 6h-3v-3h1.82c0.326 0 0.62 0.131 0.834 0.346s0.346 0.508 0.346 0.834zM23 7v-2.82c0-0.878-0.357-1.674-0.931-2.249s-1.371-0.931-2.249-0.931h-15.64c-0.878 0-1.674 0.357-2.249 0.931s-0.931 1.371-0.931 2.249v15.64c0 0.878 0.357 1.674 0.931 2.249s1.371 0.931 2.249 0.931h15.64c0.878 0 1.674-0.357 2.249-0.931s0.931-1.371 0.931-2.249zM18 8h3v3h-3z"></path>
    </symbol>
    <symbol id="icon-compass" viewBox="0 0 24 24">
      <path d="M23 12c0-3.037-1.232-5.789-3.222-7.778s-4.741-3.222-7.778-3.222-5.789 1.232-7.778 3.222-3.222 4.741-3.222 7.778 1.232 5.789 3.222 7.778 4.741 3.222 7.778 3.222 5.789-1.232 7.778-3.222 3.222-4.741 3.222-7.778zM21 12c0 2.486-1.006 4.734-2.636 6.364s-3.878 2.636-6.364 2.636-4.734-1.006-6.364-2.636-2.636-3.878-2.636-6.364 1.006-4.734 2.636-6.364 3.878-2.636 6.364-2.636 4.734 1.006 6.364 2.636 2.636 3.878 2.636 6.364zM17.189 8.076c0.066-0.196 0.072-0.418 0-0.632-0.175-0.524-0.741-0.807-1.265-0.632l-6.36 2.12c-0.29 0.098-0.529 0.323-0.632 0.632l-2.12 6.36c-0.066 0.196-0.072 0.418 0 0.632 0.175 0.524 0.741 0.807 1.265 0.632l6.36-2.12c0.29-0.098 0.529-0.323 0.632-0.632zM14.659 9.341l-1.33 3.988-3.988 1.33 1.329-3.988z"></path>
    </symbol>
    <symbol id="icon-map" viewBox="0 0 24 24">
      <path d="M7 3.723v13.697l-5 2.857v-13.697zM17 20.277v-13.697l5-2.857v13.696zM15.535 22.885c0.082 0.043 0.17 0.075 0.263 0.094 0.033 0.007 0.067 0.012 0.101 0.015s0.068 0.005 0.102 0.005c-0.001 0.001-0.001 0.001-0.001 0.001s0 0 0.001 0c0.173 0 0.344-0.046 0.496-0.132l0.015-0.009 6.985-3.991c0.32-0.183 0.501-0.518 0.503-0.868v-16c0-0.552-0.448-1-1-1-0.183 0-0.354 0.049-0.496 0.132l-6.535 3.734-7.503-3.752c-0.083-0.042-0.171-0.075-0.264-0.094-0.034-0.007-0.067-0.012-0.101-0.015s-0.068-0.005-0.102-0.005c0.001 0 0.001 0 0.001 0s0 0-0.001 0c-0.173 0-0.344 0.046-0.495 0.132l-0.015 0.008-6.985 3.992c-0.321 0.183-0.502 0.518-0.504 0.868v16c0 0.552 0.448 1 1 1 0.183 0 0.354-0.049 0.496-0.132l6.535-3.734zM15 6.618v13.764l-6-3v-13.764z"></path>
    </symbol>
    <symbol id="icon-mail" viewBox="0 0 24 24">
      <path d="M3 7.921l8.427 5.899c0.34 0.235 0.795 0.246 1.147 0l8.426-5.899v10.079c0 0.272-0.11 0.521-0.295 0.705s-0.433 0.295-0.705 0.295h-16c-0.272 0-0.521-0.11-0.705-0.295s-0.295-0.433-0.295-0.705zM1 5.983c0 0.010 0 0.020 0 0.030v11.987c0 0.828 0.34 1.579 0.88 2.12s1.292 0.88 2.12 0.88h16c0.828 0 1.579-0.34 2.12-0.88s0.88-1.292 0.88-2.12v-11.988c0-0.010 0-0.020 0-0.030-0.005-0.821-0.343-1.565-0.88-2.102-0.541-0.54-1.292-0.88-2.12-0.88h-16c-0.828 0-1.579 0.34-2.12 0.88-0.537 0.537-0.875 1.281-0.88 2.103zM20.894 5.554l-8.894 6.225-8.894-6.225c0.048-0.096 0.112-0.183 0.188-0.259 0.185-0.185 0.434-0.295 0.706-0.295h16c0.272 0 0.521 0.11 0.705 0.295 0.076 0.076 0.14 0.164 0.188 0.259z"></path>
    </symbol>
    <symbol id="icon-users-alt" viewBox="0 0 24 24">
      <path d="M12.3 12.22c1.044-0.907 1.7-2.237 1.7-3.72 0-0 0-0 0-0v0c0-2.761-2.239-5-5-5s-5 2.239-5 5v0c0 0 0 0 0 0 0 1.483 0.656 2.813 1.694 3.715l0.006 0.005c-2.793 1.287-4.697 4.061-4.7 7.28v0c0 0.552 0.448 1 1 1s1-0.448 1-1v0c0-3.314 2.686-6 6-6s6 2.686 6 6v0c0 0.552 0.448 1 1 1s1-0.448 1-1v0c-0.003-3.219-1.907-5.993-4.65-7.259l-0.050-0.021zM9 11.5c-1.657 0-3-1.343-3-3s1.343-3 3-3c1.657 0 3 1.343 3 3v0c0 1.657-1.343 3-3 3v0zM18.74 11.82c0.783-0.879 1.261-2.043 1.261-3.32 0-2.761-2.239-5-5-5-0 0-0.001 0-0.001 0h0c-0.552 0-1 0.448-1 1s0.448 1 1 1v0c1.657 0 3 1.343 3 3v0c-0.003 1.101-0.599 2.063-1.486 2.582l-0.014 0.008c-0.294 0.172-0.49 0.482-0.5 0.839l-0 0.001c-0 0.007-0 0.016-0 0.025 0 0.348 0.177 0.654 0.447 0.833l0.004 0.002 0.39 0.26 0.13 0.070c2.384 1.15 4 3.549 4 6.325 0 0.019-0 0.039-0 0.058l0-0.003c0 0.552 0.448 1 1 1s1-0.448 1-1v0c0-0.014 0-0.031 0-0.048 0-3.203-1.673-6.015-4.193-7.61l-0.037-0.022z"></path>
    </symbol>
    <symbol id="icon-arrows-h" viewBox="0 0 24 24">
      <path d="M21.92 11.62c-0.050-0.128-0.122-0.238-0.21-0.33l0 0-4-4c-0.182-0.182-0.433-0.294-0.71-0.294-0.555 0-1.004 0.45-1.004 1.004 0 0.277 0.112 0.528 0.294 0.71v0l2.3 2.29h-13.18l2.3-2.29c0.182-0.182 0.294-0.433 0.294-0.71 0-0.555-0.45-1.004-1.004-1.004-0.277 0-0.528 0.112-0.71 0.294l-4 4c-0.088 0.092-0.16 0.202-0.208 0.323l-0.002 0.007c-0.047 0.112-0.075 0.243-0.075 0.38s0.028 0.268 0.077 0.387l-0.002-0.007c0.050 0.128 0.122 0.238 0.21 0.33l-0-0 4 4c0.181 0.183 0.432 0.296 0.71 0.296s0.529-0.113 0.71-0.296l0-0c0.183-0.181 0.296-0.432 0.296-0.71s-0.113-0.529-0.296-0.71l-0-0-2.3-2.29h13.18l-2.3 2.29c-0.183 0.181-0.296 0.432-0.296 0.71s0.113 0.529 0.296 0.71l0 0c0.181 0.183 0.432 0.296 0.71 0.296s0.529-0.113 0.71-0.296l4-4c0.088-0.092 0.16-0.202 0.208-0.323l0.002-0.007c0.047-0.112 0.075-0.243 0.075-0.38s-0.028-0.268-0.077-0.387l0.002 0.007z"></path>
    </symbol>
    <symbol id="icon-calendar" viewBox="0 0 24 24">
      <path d="M7 2v1h-2c-0.828 0-1.58 0.337-2.121 0.879s-0.879 1.293-0.879 2.121v14c0 0.828 0.337 1.58 0.879 2.121s1.293 0.879 2.121 0.879h14c0.828 0 1.58-0.337 2.121-0.879s0.879-1.293 0.879-2.121v-14c0-0.828-0.337-1.58-0.879-2.121s-1.293-0.879-2.121-0.879h-2v-1c0-0.552-0.448-1-1-1s-1 0.448-1 1v1h-6v-1c0-0.552-0.448-1-1-1s-1 0.448-1 1zM20 9h-16v-3c0-0.276 0.111-0.525 0.293-0.707s0.431-0.293 0.707-0.293h2v1c0 0.552 0.448 1 1 1s1-0.448 1-1v-1h6v1c0 0.552 0.448 1 1 1s1-0.448 1-1v-1h2c0.276 0 0.525 0.111 0.707 0.293s0.293 0.431 0.293 0.707zM4 11h16v9c0 0.276-0.111 0.525-0.293 0.707s-0.431 0.293-0.707 0.293h-14c-0.276 0-0.525-0.111-0.707-0.293s-0.293-0.431-0.293-0.707z"></path>
    </symbol>
    <symbol id="icon-play-circle" viewBox="0 0 24 24">
      <path d="M23 12c0-3.037-1.232-5.789-3.222-7.778s-4.741-3.222-7.778-3.222-5.789 1.232-7.778 3.222-3.222 4.741-3.222 7.778 1.232 5.789 3.222 7.778 4.741 3.222 7.778 3.222 5.789-1.232 7.778-3.222 3.222-4.741 3.222-7.778zM21 12c0 2.486-1.006 4.734-2.636 6.364s-3.878 2.636-6.364 2.636-4.734-1.006-6.364-2.636-2.636-3.878-2.636-6.364 1.006-4.734 2.636-6.364 3.878-2.636 6.364-2.636 4.734 1.006 6.364 2.636 2.636 3.878 2.636 6.364zM10.555 7.168c-0.156-0.105-0.348-0.168-0.555-0.168-0.552 0-1 0.448-1 1v8c-0.001 0.188 0.053 0.383 0.168 0.555 0.306 0.46 0.927 0.584 1.387 0.277l6-4c0.103-0.068 0.2-0.162 0.277-0.277 0.306-0.46 0.182-1.080-0.277-1.387zM11 9.869l3.197 2.131-3.197 2.131z"></path>
    </symbol>
    <symbol id="icon-question" viewBox="0 0 24 24">
      <path d="M15.333 9.5c-0-1.933-1.567-3.5-3.5-3.5-1.289 0-2.415 0.696-3.022 1.733l-0.009 0.017c-0.084 0.143-0.134 0.316-0.134 0.5 0 0.552 0.448 1 1 1 0.368 0 0.69-0.199 0.863-0.495l0.003-0.005c0.265-0.451 0.747-0.749 1.299-0.75h0c0.828 0 1.5 0.672 1.5 1.5s-0.672 1.5-1.5 1.5v0h-0.002c-0.070 0.007-0.135 0.021-0.196 0.041l0.007-0.002c-0.074 0.008-0.141 0.022-0.206 0.043l0.007-0.002c-0.059 0.032-0.11 0.067-0.157 0.106l0.002-0.001c-0.062 0.034-0.115 0.070-0.164 0.111l0.002-0.001c-0.043 0.051-0.082 0.108-0.114 0.168l-0.003 0.005c-0.034 0.042-0.066 0.089-0.094 0.139l-0.003 0.005c-0.020 0.062-0.035 0.133-0.043 0.208l-0 0.004c-0.016 0.051-0.029 0.111-0.035 0.172l-0 0.004v1l0.002 0.011 0.001 0.491c0.001 0.551 0.449 0.997 1 0.998h0.002c0.551-0.001 0.998-0.449 0.998-1 0-0.001 0-0.002 0-0.003v0l-0.002-0.661c1.452-0.442 2.492-1.767 2.498-3.335v-0.001zM11.13 16.29c-0.183 0.181-0.296 0.432-0.296 0.71 0 0.551 0.445 0.997 0.995 1h0c0.276-0.002 0.526-0.112 0.711-0.29l-0 0c0.179-0.183 0.29-0.434 0.29-0.71s-0.11-0.527-0.29-0.71l0 0c-0.184-0.172-0.432-0.278-0.705-0.278s-0.521 0.106-0.706 0.278l0.001-0.001z"></path>
    </symbol>
    <symbol id="icon-envelope" viewBox="0 0 24 24">
      <path d="M19 4h-14c-1.657 0-3 1.343-3 3v0 10c0 1.657 1.343 3 3 3v0h14c1.657 0 3-1.343 3-3v0-10c0-1.657-1.343-3-3-3v0zM18.59 6l-5.88 5.88c-0.181 0.183-0.432 0.296-0.71 0.296s-0.529-0.113-0.71-0.296l-5.88-5.88zM20 17c0 0.552-0.448 1-1 1v0h-14c-0.552 0-1-0.448-1-1v0-9.59l5.88 5.88c0.543 0.542 1.292 0.877 2.12 0.877s1.577-0.335 2.12-0.877l5.88-5.88z"></path>
    </symbol>
    <symbol id="icon-link" viewBox="0 0 24 24">
      <path d="M9.199 13.599c0.992 1.327 2.43 2.126 3.948 2.345s3.123-0.142 4.45-1.134c0.239-0.179 0.465-0.375 0.655-0.568l2.995-2.995c1.163-1.204 1.722-2.751 1.696-4.285s-0.639-3.061-1.831-4.211c-1.172-1.132-2.688-1.692-4.199-1.683-1.492 0.008-2.984 0.571-4.137 1.683l-1.731 1.721c-0.392 0.389-0.394 1.023-0.004 1.414s1.023 0.394 1.414 0.004l1.709-1.699c0.77-0.742 1.763-1.117 2.76-1.123 1.009-0.006 2.016 0.367 2.798 1.122 0.795 0.768 1.203 1.783 1.221 2.808s-0.355 2.054-1.11 2.836l-3.005 3.005c-0.114 0.116-0.263 0.247-0.428 0.37-0.885 0.662-1.952 0.902-2.967 0.756s-1.971-0.678-2.632-1.563c-0.331-0.442-0.957-0.533-1.4-0.202s-0.533 0.957-0.202 1.4zM14.801 10.401c-0.992-1.327-2.43-2.126-3.948-2.345s-3.124 0.142-4.451 1.134c-0.239 0.179-0.464 0.375-0.655 0.568l-2.995 2.995c-1.163 1.204-1.722 2.751-1.696 4.285s0.639 3.061 1.831 4.211c1.172 1.132 2.688 1.692 4.199 1.683 1.492-0.008 2.984-0.571 4.137-1.683l1.723-1.723c0.391-0.391 0.391-1.024 0-1.414s-1.024-0.391-1.414 0l-1.696 1.698c-0.77 0.742-1.763 1.117-2.76 1.123-1.009 0.006-2.016-0.367-2.798-1.122-0.795-0.768-1.203-1.783-1.221-2.808s0.355-2.054 1.11-2.836l3.005-3.005c0.114-0.116 0.263-0.247 0.428-0.37 0.885-0.662 1.952-0.902 2.967-0.756s1.971 0.678 2.632 1.563c0.331 0.442 0.957 0.533 1.4 0.202s0.533-0.957 0.202-1.4z"></path>
    </symbol>
    <symbol id="icon-pen" viewBox="0 0 24 24">
      <path d="M22 7.24c0-0.002 0-0.004 0-0.006 0-0.275-0.111-0.524-0.29-0.704l-4.24-4.24c-0.181-0.179-0.43-0.29-0.704-0.29-0.002 0-0.004 0-0.006 0h0c-0.002 0-0.004-0-0.006-0-0.275 0-0.524 0.111-0.704 0.29l-13.76 13.76c-0.179 0.181-0.29 0.43-0.29 0.704 0 0.002 0 0.004 0 0.006v-0 4.24c0 0.552 0.448 1 1 1v0h4.24c0.016 0.001 0.035 0.001 0.054 0.001 0.275 0 0.525-0.111 0.706-0.292l-0 0 10.87-10.93 2.84-2.78c0.089-0.094 0.162-0.203 0.217-0.323l0.003-0.007c0.005-0.036 0.007-0.078 0.007-0.12s-0.003-0.084-0.008-0.125l0 0.005c0.002-0.021 0.004-0.045 0.004-0.070s-0.001-0.049-0.004-0.073l0 0.003zM6.83 20h-2.83v-2.83l9.93-9.93 2.83 2.83zM18.17 8.66l-2.83-2.83 1.42-1.41 2.82 2.82z"></path>
    </symbol>
    <symbol id="icon-list" viewBox="0 0 24 24">
      <path d="M8 7h13c0.552 0 1-0.448 1-1s-0.448-1-1-1h-13c-0.552 0-1 0.448-1 1s0.448 1 1 1zM8 13h13c0.552 0 1-0.448 1-1s-0.448-1-1-1h-13c-0.552 0-1 0.448-1 1s0.448 1 1 1zM8 19h13c0.552 0 1-0.448 1-1s-0.448-1-1-1h-13c-0.552 0-1 0.448-1 1s0.448 1 1 1zM3 7c0.552 0 1-0.448 1-1s-0.448-1-1-1-1 0.448-1 1 0.448 1 1 1zM3 13c0.552 0 1-0.448 1-1s-0.448-1-1-1-1 0.448-1 1 0.448 1 1 1zM3 19c0.552 0 1-0.448 1-1s-0.448-1-1-1-1 0.448-1 1 0.448 1 1 1z"></path>
    </symbol>
    <symbol id="icon-home-alt" viewBox="0 0 24 24">
      <path d="M20 8v0l-6-5.26c-0.528-0.474-1.23-0.764-2-0.764s-1.472 0.29-2.003 0.766l0.003-0.002-6 5.26c-0.615 0.552-1 1.349-1 2.236 0 0.008 0 0.017 0 0.025v-0.001 8.74c0 1.657 1.343 3 3 3v0h12c1.657 0 3-1.343 3-3v0-8.75c0-0.004 0-0.009 0-0.014 0-0.887-0.385-1.684-0.997-2.234l-0.003-0.002zM14 20h-4v-5c0-0.552 0.448-1 1-1v0h2c0.552 0 1 0.448 1 1v0zM19 19c0 0.552-0.448 1-1 1v0h-2v-5c0-1.657-1.343-3-3-3v0h-2c-1.657 0-3 1.343-3 3v0 5h-2c-0.552 0-1-0.448-1-1v0-8.75c0-0.298 0.131-0.566 0.339-0.749l0.001-0.001 6-5.25c0.175-0.154 0.407-0.249 0.66-0.249s0.485 0.094 0.661 0.25l-0.001-0.001 6 5.25c0.209 0.184 0.34 0.452 0.34 0.75v0z"></path>
    </symbol>
    <symbol id="icon-home" viewBox="0 0 24 24">
      <path d="M21.66 10.25l-9-8c-0.175-0.154-0.407-0.249-0.66-0.249s-0.485 0.094-0.661 0.25l0.001-0.001-9 8c-0.207 0.184-0.337 0.451-0.337 0.749 0 0.13 0.025 0.254 0.070 0.368l-0.002-0.007c0.148 0.377 0.508 0.639 0.93 0.64h1v9c0 0.552 0.448 1 1 1v0h14c0.552 0 1-0.448 1-1v0-9h1c0.422-0.001 0.782-0.263 0.928-0.633l0.002-0.007c0.043-0.107 0.067-0.231 0.067-0.361 0-0.298-0.13-0.565-0.336-0.748l-0.001-0.001zM13 20h-2v-3c0-0.552 0.448-1 1-1s1 0.448 1 1v0zM18 20h-3v-3c0-1.657-1.343-3-3-3s-3 1.343-3 3v0 3h-3v-8h12zM5.63 10l6.37-5.66 6.37 5.66z"></path>
    </symbol>
    <symbol id="icon-store-alt" viewBox="0 0 24 24">
      <path d="M22 2h-20c-0.552 0-1 0.448-1 1v0 4c0.004 1.295 0.827 2.397 1.979 2.813l0.021 0.007v11.18c0 0.552 0.448 1 1 1v0h16c0.552 0 1-0.448 1-1v0-11.18c1.173-0.423 1.996-1.525 2-2.82v-4c0-0.552-0.448-1-1-1v0zM15 4h2v3c0 0.552-0.448 1-1 1s-1-0.448-1-1v0zM11 4h2v3c0 0.552-0.448 1-1 1s-1-0.448-1-1v0zM7 4h2v3c0 0.552-0.448 1-1 1s-1-0.448-1-1v0zM4 8c-0.552 0-1-0.448-1-1v0-3h2v3c0 0.552-0.448 1-1 1v0zM14 20h-4v-4c0-1.105 0.895-2 2-2s2 0.895 2 2v0zM19 20h-3v-4c0-2.209-1.791-4-4-4s-4 1.791-4 4v0 4h-3v-10.18c0.386-0.145 0.718-0.349 1.003-0.603l-0.003 0.003c0.528 0.474 1.23 0.764 2 0.764s1.472-0.29 2.003-0.766l-0.003 0.002c0.528 0.474 1.23 0.764 2 0.764s1.472-0.29 2.003-0.766l-0.003 0.002c0.528 0.474 1.23 0.764 2 0.764s1.472-0.29 2.003-0.766l-0.003 0.002c0.282 0.251 0.614 0.455 0.978 0.593l0.022 0.007zM21 7c0 0.552-0.448 1-1 1s-1-0.448-1-1v0-3h2z"></path>
    </symbol>
    <symbol id="icon-store" viewBox="0 0 24 24">
      <path d="M22 7.82c0.002-0.028 0.004-0.062 0.004-0.095s-0.001-0.067-0.004-0.099l0 0.004-2-5c-0.151-0.374-0.51-0.632-0.93-0.632-0.025 0-0.049 0.001-0.073 0.003l0.003-0h-14c-0 0-0.001 0-0.001 0-0.419 0-0.778 0.258-0.927 0.623l-0.002 0.007-2 5c-0.002 0.028-0.004 0.062-0.004 0.095s0.001 0.067 0.004 0.099l-0-0.004c-0.031 0.052-0.056 0.112-0.069 0.176l-0.001 0.004c0.024 1.448 0.814 2.706 1.981 3.39l0.019 0.010v9.6c0 0.552 0.448 1 1 1v0h14c0.552 0 1-0.448 1-1v0-9.56c1.197-0.7 1.991-1.977 2-3.439v-0.001c0.004-0.027 0.007-0.058 0.007-0.090s-0.003-0.063-0.007-0.093l0 0.003zM13 20h-2v-4h2zM18 20h-3v-5c0-0.552-0.448-1-1-1v0h-4c-0.552 0-1 0.448-1 1v0 5h-3v-8c1.196-0.007 2.267-0.538 2.996-1.375l0.004-0.005c0.737 0.832 1.807 1.354 3 1.354s2.263-0.522 2.996-1.35l0.004-0.004c0.733 0.842 1.804 1.373 2.999 1.38h0.001zM18 10c-1.105 0-2-0.895-2-2v0c0-0.552-0.448-1-1-1s-1 0.448-1 1v0c0 1.105-0.895 2-2 2s-2-0.895-2-2v0c0-0.552-0.448-1-1-1s-1 0.448-1 1v0c0.001 0.022 0.001 0.049 0.001 0.075 0 1.105-0.896 2.001-2.001 2.001-1.079 0-1.959-0.854-2-1.923l-0-0.004 1.68-4.15h12.64l1.68 4.15c-0.080 1.038-0.943 1.85-1.994 1.85-0.002 0-0.004 0-0.006 0h0z"></path>
    </symbol>
    <symbol id="icon-luggage-cart" viewBox="0 0 24 24">
      <path d="M2 13.5v2c0 0.552 0.448 1 1 1v0h10c0 1.657 1.343 3 3 3s3-1.343 3-3v0h2c0.552 0 1-0.448 1-1v0-8c0-1.657-1.343-3-3-3v0h-10c-1.657 0-3 1.343-3 3v0 7h-2v-1c0-0.552-0.448-1-1-1s-1 0.448-1 1v0zM15 16.5c0-0.552 0.448-1 1-1s1 0.448 1 1c0 0.552-0.448 1-1 1v0c-0.552 0-1-0.448-1-1v0zM8 10.5h12v4h-1.78c-0.551-0.604-1.341-0.982-2.22-0.982s-1.669 0.378-2.218 0.98l-0.002 0.002h-5.78zM8 7.5c0-0.552 0.448-1 1-1v0h10c0.552 0 1 0.448 1 1v0 1h-12z"></path>
    </symbol>
    <symbol id="icon-zoom-in" viewBox="0 0 24 24">
      <path d="M16.041 15.856c-0.034 0.026-0.067 0.055-0.099 0.087s-0.060 0.064-0.087 0.099c-1.258 1.213-2.969 1.958-4.855 1.958-1.933 0-3.682-0.782-4.95-2.050s-2.050-3.017-2.050-4.95 0.782-3.682 2.050-4.95 3.017-2.050 4.95-2.050 3.682 0.782 4.95 2.050 2.050 3.017 2.050 4.95c0 1.886-0.745 3.597-1.959 4.856zM21.707 20.293l-3.675-3.675c1.231-1.54 1.968-3.493 1.968-5.618 0-2.485-1.008-4.736-2.636-6.364s-3.879-2.636-6.364-2.636-4.736 1.008-6.364 2.636-2.636 3.879-2.636 6.364 1.008 4.736 2.636 6.364 3.879 2.636 6.364 2.636c2.125 0 4.078-0.737 5.618-1.968l3.675 3.675c0.391 0.391 1.024 0.391 1.414 0s0.391-1.024 0-1.414zM8 12h2v2c0 0.552 0.448 1 1 1s1-0.448 1-1v-2h2c0.552 0 1-0.448 1-1s-0.448-1-1-1h-2v-2c0-0.552-0.448-1-1-1s-1 0.448-1 1v2h-2c-0.552 0-1 0.448-1 1s0.448 1 1 1z"></path>
    </symbol>
    <symbol id="icon-chat" viewBox="0 0 24 24">
      <path d="M18 2h-12c-1.657 0-3 1.343-3 3v0 11c0 1.657 1.343 3 3 3v0h2.59l2.7 2.71c0.181 0.179 0.43 0.29 0.704 0.29 0.002 0 0.004 0 0.006-0h-0c0 0 0 0 0 0 0.249 0 0.476-0.091 0.651-0.241l-0.001 0.001 3.22-2.76h2.13c1.657 0 3-1.343 3-3v0-11c0-1.657-1.343-3-3-3v0zM19 16c0 0.552-0.448 1-1 1v0h-2.5c-0 0-0 0-0 0-0.249 0-0.476 0.091-0.651 0.241l0.001-0.001-2.8 2.4-2.34-2.35c-0.181-0.179-0.43-0.29-0.704-0.29-0.002 0-0.004 0-0.006 0h-3c-0.552 0-1-0.448-1-1v0-11c0-0.552 0.448-1 1-1v0h12c0.552 0 1 0.448 1 1v0z"></path>
    </symbol>
    <!-- Not in the full definitions file -->
    <symbol id="icon-beach" viewBox="0 0 24 24">
      <path d="m22.57,21.1c-.17-.08-4.14-1.94-11.03-1.94-.85,0-1.63.03-2.37.08l3.41-8.01c2.53,1.15,3.13,1.68,3.15,1.68h0c.25.33.66.46,1.04.37.13,0,.69.03,2.07.61,1.52.66,1.96,1.01,2.04,1.08.19.23.47.36.77.36.06,0,.13,0,.19-.02.41-.08.72-.4.79-.81.01-.07,1.17-7.23-6.59-11.4l.12-.28c.22-.51-.02-1.1-.53-1.31-.5-.22-1.09.02-1.31.53l-.12.28C5.85-.42,1.47,5.39,1.42,5.46c-.24.33-.26.79-.03,1.13.2.31.56.49.91.45.1,0,.67.08,2.18.72,1.34.58,1.78.97,1.87,1.07.18.35.5.56.91.51.03,0,.82.04,3.47,1.1l-3.85,9.04c-3.71.55-5.43,1.61-5.53,1.67-.46.29-.6.91-.31,1.37.29.46.91.6,1.38.32.03-.02,2.81-1.69,9.11-1.69s10.14,1.73,10.17,1.74c.14.07.29.1.43.1.37,0,.73-.21.9-.57.24-.5.03-1.1-.47-1.33ZM14.37,4.5c2.03,1.09,1.82,4.29,1.5,6.15-.84-.48-2-1.05-3.41-1.66,0,0,0,0,0,0,0,0,0,0,0,0,0,0,0,0,0,0-1.42-.6-2.62-1.04-3.56-1.32,1.12-1.51,3.29-3.88,5.48-3.17Zm6.32,8.04c-.32-.16-.67-.32-1.07-.49-.72-.3-1.33-.5-1.86-.63.22-1.1.45-2.82.2-4.5,2.02,1.99,2.59,4.17,2.73,5.62ZM5.27,5.92c-.39-.17-.75-.31-1.08-.43,1.14-.91,3.12-2.02,5.95-1.93-1.39.98-2.48,2.34-3.12,3.27-.46-.3-1.03-.6-1.75-.91Z"/>
    </symbol>
    <symbol id="icon-crossaint" viewBox="0 0 24 24">
      <path d="M21.1415 11.2976C20.9242 8.91246 18.6715 7.46061 16.5671 7.09293C15.7767 5.79192 14.0476 5 11.9926 5C9.93753 5 8.20852 5.80135 7.41812 7.09293C5.31366 7.47003 3.06101 8.92189 2.84365 11.3071C0.61075 12.8061 -0.337736 14.8236 0.106867 17.1239C0.314348 18.0195 0.758951 18.5946 1.4308 18.8492C1.68768 18.9529 1.9742 19 2.29036 19C3.27837 19 4.56278 18.5098 6.18311 17.5199C7.00315 17.9158 8.03068 17.9253 9.29533 17.5576C9.93753 18.2175 10.9354 18.604 11.9926 18.604C13.0498 18.604 14.0378 18.2175 14.6898 17.5576C15.9446 17.9253 16.9623 17.9158 17.7823 17.5293C19.4916 18.8114 21.102 19.2545 22.3271 18.7549C23.2657 18.3778 23.8783 17.4539 23.987 16.2943C24.1055 14.8801 23.4337 12.7495 21.1514 11.2882L21.1415 11.2976ZM8.47528 16.1717C7.56632 16.4168 6.51903 16.2377 6.05467 15.3892C5.92623 15.1441 5.77803 14.8896 5.61994 14.6162C4.86906 13.3246 4.00949 11.8539 4.68134 10.6377V10.6094C5.05678 9.77037 5.87683 9.11987 6.92411 8.81818C6.96363 10.3926 7.84296 13.7488 8.33696 15.6438C8.38636 15.8418 8.43576 16.0209 8.47528 16.1717ZM15.4506 9.03502C15.253 9.59125 15.1246 10.4209 14.9764 11.3731C14.6009 13.8148 14.1168 17.171 11.9827 17.0673C10.9848 17.0673 10.1253 16.4263 9.94741 15.5778C9.92765 15.3987 9.77945 14.7859 9.53245 13.73C9.16689 12.1744 8.48516 9.28956 8.5148 8.83704V8.76162C8.65312 7.1495 10.5402 6.433 12.3483 6.54613C13.9587 6.64983 15.5297 7.46061 15.4506 9.02559V9.03502ZM19.1655 13.1455L19.0766 13.3152C18.5332 14.3993 17.8021 15.8795 16.7054 16.2471C16.3299 16.3697 15.9347 16.3603 15.5 16.2094C15.6581 15.6721 15.9446 14.4182 16.6362 11.3448C16.8141 10.534 16.9524 9.92121 16.982 9.83636V9.80808C17.0512 9.47811 17.0808 9.14815 17.0709 8.81818C17.9799 9.07273 18.7703 9.69495 19.205 10.5152C19.6496 11.3731 19.6398 12.3158 19.1655 13.136V13.1455ZM21.764 17.3407C21.4182 17.4822 20.6278 17.5387 19.0766 16.5017C19.5706 15.8229 20.193 14.6067 20.5981 13.8431L20.8056 13.4566C20.8451 13.3529 20.8945 13.2492 20.9242 13.1455C22.011 14.1259 22.4852 15.5118 22.3667 16.4168C22.3271 16.7468 22.1888 17.1805 21.764 17.3502V17.3407ZM4.88882 16.4923C3.33765 17.5481 2.53736 17.4822 2.19156 17.3407C1.76672 17.171 1.6284 16.7374 1.58888 16.4074C1.47032 15.4929 1.95444 14.0976 3.05113 13.1172C3.45621 14.2296 4.28613 15.6343 4.88882 16.4828V16.4923Z" />
    </symbol>
    <symbol id="icon-dog" viewBox="0 0 24 24">
      <path d="M19.8183 1.76164C19.4856 1.60609 19.0915 1.67386 18.8295 1.93109L12.7553 7.89711H3.75625L1.24392 5.38478L0 6.62834L2.39949 9.02782V20.0822C2.39949 20.568 2.79318 20.9618 3.27884 20.9618H5.76613C6.25199 20.9618 6.64574 20.5681 6.64574 20.0822V16.6656H14.3836V20.3085C14.3836 20.7944 14.7774 21.1881 15.2632 21.1881H17.8634C18.3494 21.1881 18.7428 20.7942 18.7428 20.3085V12.1921C18.8192 12.1071 18.8733 12.0116 18.9095 11.9139L19.5592 11.2642L20.3505 12.0556C20.6939 12.3989 21.251 12.3989 21.5944 12.0556L23.7425 9.90746C24.0858 9.56406 24.0858 9.00698 23.7425 8.66359L20.1291 5.05025L20.3228 2.62856C20.3519 2.26254 20.1507 1.91708 19.8183 1.76164ZM18.0328 10.3026L15.4479 7.71776L18.3813 4.83665L18.343 5.31458C18.3224 5.57164 18.4159 5.82441 18.5978 6.00665L21.8764 9.28528L20.9724 10.1895L20.1811 9.39818C19.8377 9.05478 19.2806 9.05478 18.9372 9.39818L18.0328 10.3026ZM13.7311 9.40407L14.1929 8.95047L16.9838 11.7414V19.4289H16.1426V15.786C16.1426 15.3002 15.7489 14.9064 15.2632 14.9064H5.76613C5.28015 14.9064 4.88679 15.3003 4.88679 15.786V19.2026H4.15844V9.65607H13.1149C13.3452 9.65607 13.5666 9.56575 13.7311 9.40407Z" />
    </symbol>
    <symbol id="icon-group" viewBox="0 0 24 24">
      <path d="m17.95,15.94c.67.87,1.05,1.96,1.05,3.06v2c0,.55-.45,1-1,1s-1-.45-1-1v-2c0-.66-.22-1.31-.63-1.83-.41-.52-.98-.9-1.62-1.07-.54-.14-.86-.68-.72-1.22.14-.54.68-.86,1.22-.72,1.07.28,2.03.91,2.7,1.78Zm5,0c-.67-.87-1.63-1.5-2.7-1.78-.53-.14-1.08.18-1.22.72-.14.54.18,1.08.72,1.22.64.17,1.22.54,1.62,1.07.4.52.63,1.17.63,1.83v2c0,.55.45,1,1,1s1-.45,1-1v-2c0-1.1-.37-2.19-1.05-3.06Zm-13.95-1.94h-4c-1.33,0-2.59.52-3.54,1.46-.94.94-1.46,2.2-1.46,3.54v2c0,.55.45,1,1,1s1-.45,1-1v-2c0-.79.32-1.56.88-2.12.57-.57,1.32-.88,2.12-.88h4c.8,0,1.55.31,2.12.88.56.56.88,1.33.88,2.12v2c0,.55.45,1,1,1s1-.45,1-1v-2c0-1.32-.53-2.6-1.46-3.54-.94-.94-2.2-1.46-3.54-1.46Zm3.75-4.09c-.54.14-.86.68-.72,1.22.12.45.52.75.97.75.08,0,.17,0,.25-.03,1.07-.27,2.03-.91,2.71-1.78.68-.87,1.05-1.96,1.05-3.07s-.37-2.19-1.05-3.07c-.68-.87-1.64-1.5-2.71-1.78-.53-.14-1.08.19-1.22.72-.14.54.19,1.08.72,1.22.64.16,1.22.54,1.63,1.07.41.52.63,1.18.63,1.84s-.22,1.32-.63,1.84-.98.9-1.63,1.07Zm5,0c-.54.14-.86.68-.72,1.22.12.45.52.75.97.75.08,0,.17,0,.25-.03,1.07-.27,2.03-.91,2.71-1.78.68-.87,1.05-1.96,1.05-3.07s-.37-2.19-1.05-3.07c-.68-.87-1.64-1.5-2.71-1.78-.54-.14-1.08.19-1.22.72-.14.54.19,1.08.72,1.22.64.16,1.22.54,1.63,1.07.41.52.63,1.18.63,1.84s-.22,1.32-.63,1.84-.98.9-1.63,1.07ZM2,7c0-2.76,2.24-5,5-5s5,2.24,5,5-2.24,5-5,5-5-2.24-5-5Zm2,0c0,1.65,1.35,3,3,3s3-1.35,3-3-1.35-3-3-3-3,1.35-3,3Z"/>
    </symbol>
    <symbol id="icon-group-xl" viewBox="0 0 24 24">
      <path d="m14.95,15.94c.67.87,1.05,1.96,1.05,3.06v2c0,.55-.45,1-1,1s-1-.45-1-1v-2c0-.66-.22-1.31-.63-1.83-.41-.52-.98-.9-1.62-1.07-.53-.14-.86-.68-.72-1.22s.68-.86,1.22-.72c1.07.28,2.03.91,2.7,1.78Zm1.3-1.78c-.53-.14-1.08.18-1.22.72-.14.54.18,1.08.72,1.22.64.17,1.22.54,1.62,1.07.4.52.63,1.17.63,1.83v2c0,.55.45,1,1,1s1-.45,1-1v-2c0-1.1-.37-2.19-1.05-3.06-.67-.87-1.63-1.5-2.7-1.78Zm4,0c-.53-.14-1.08.18-1.22.72-.14.54.18,1.08.72,1.22.64.17,1.22.54,1.62,1.07.4.52.63,1.17.63,1.83v2c0,.55.45,1,1,1s1-.45,1-1v-2c0-1.1-.37-2.19-1.05-3.06-.67-.87-1.63-1.5-2.7-1.78Zm-13.25-.16h-2c-1.33,0-2.59.52-3.54,1.46-.94.94-1.46,2.2-1.46,3.54v2c0,.55.45,1,1,1s1-.45,1-1v-2c0-.79.32-1.56.88-2.12.57-.57,1.32-.88,2.12-.88h2c.8,0,1.55.31,2.12.88.56.56.88,1.33.88,2.12v2c0,.55.45,1,1,1s1-.45,1-1v-2c0-1.34-.52-2.59-1.46-3.54-.95-.94-2.2-1.46-3.54-1.46Zm4.75-4.22c-.54.14-.86.68-.72,1.22.12.45.52.75.97.75.08,0,.17,0,.25-.03,1.07-.27,2.03-.91,2.71-1.78.68-.87,1.05-1.96,1.05-3.07s-.37-2.19-1.05-3.07c-.68-.87-1.64-1.5-2.71-1.78-.54-.14-1.08.19-1.22.72-.14.54.19,1.08.72,1.22.64.16,1.22.54,1.63,1.07.41.52.63,1.18.63,1.84s-.22,1.32-.63,1.84-.98.9-1.63,1.07Zm4-5.68c.64.16,1.22.54,1.63,1.07.41.52.63,1.18.63,1.84s-.22,1.32-.63,1.84-.98.9-1.63,1.07c-.54.14-.86.68-.72,1.22.12.45.52.75.97.75.08,0,.17,0,.25-.03,1.07-.27,2.03-.91,2.71-1.78.68-.87,1.05-1.96,1.05-3.07s-.37-2.19-1.05-3.07c-.68-.87-1.64-1.5-2.71-1.78-.53-.14-1.08.19-1.22.72-.14.54.19,1.08.72,1.22Zm4,0c.64.16,1.22.54,1.63,1.07.41.52.63,1.18.63,1.84s-.22,1.32-.63,1.84-.98.9-1.63,1.07c-.54.14-.86.68-.72,1.22.12.45.52.75.97.75.08,0,.17,0,.25-.03,1.07-.27,2.03-.91,2.71-1.78.68-.87,1.05-1.96,1.05-3.07s-.37-2.19-1.05-3.07c-.68-.87-1.64-1.5-2.71-1.78-.53-.14-1.08.19-1.22.72-.14.54.19,1.08.72,1.22ZM1,7c0-2.76,2.24-5,5-5s5,2.24,5,5-2.24,5-5,5S1,9.76,1,7Zm2,0c0,1.65,1.35,3,3,3s3-1.35,3-3-1.35-3-3-3-3,1.35-3,3Z"/>
    </symbol>
    <symbol id="icon-kids" viewBox="0 0 24 24">
      <path d="m7.07.85c-.29,0-.57.12-.77.36-.35.42-.3,1.05.12,1.41.09.08.19.15.28.23C3.92,3.85,1.92,6.51,1.92,9.65c0,3.69,2.76,6.72,6.32,7.18.6,3.24,3.43,5.69,6.84,5.69,3.84,0,6.96-3.12,6.96-6.96,0-1.76-.66-3.37-1.74-4.59.48-.07.96-.14,1.47-.2.55-.06.95-.55.89-1.1-.06-.51-.49-.89-.99-.89-.04,0-.07,0-.11,0-1.2.13-2.32.32-3.4.54-.57-.28-1.18-.49-1.82-.6-.35-2.72-2.2-4.95-4.7-5.86.1-.08.19-.16.29-.24.42-.35.48-.99.12-1.41-.2-.24-.48-.36-.77-.36-.23,0-.45.08-.64.23-.5.42-.98.81-1.47,1.18-.48-.37-.97-.76-1.47-1.18-.19-.16-.42-.23-.64-.23h0Zm1.1,13.94c-2.42-.47-4.25-2.59-4.25-5.14,0-.72.15-1.4.41-2.03.04-.01.09,0,.13-.03,1.47-.68,3.05-1.64,4.72-2.84,1.67,1.2,3.25,2.15,4.72,2.84.03.01.06,0,.09.02.14.33.24.67.31,1.03-1.57.18-2.97.87-4.05,1.91-.31,0-.7,0-1.09,0-.83,0-1.66,0-1.74.01-.15.01-.29.09-.38.2-.1.12-.17.34.02.67.17.28.79,1.06,1.69,1.26-.3.65-.5,1.36-.58,2.1h0Zm6.91,5.73c-2.73,0-4.96-2.22-4.96-4.96,0-.13.03-.26.04-.39,1.81-1.72,4.37-2.97,7.66-3.74,1.34.89,2.22,2.41,2.22,4.13,0,2.73-2.22,4.96-4.96,4.96h0Zm-4.4-12.57c-.39,0-.7.31-.7.7s.31.7.7.7.7-.31.7-.7-.31-.7-.7-.7h0Zm-2.92,0c-.39,0-.7.31-.7.7s.31.7.7.7.7-.31.7-.7-.31-.7-.7-.7h0Zm8.78,6.62c-.39,0-.7.31-.7.7s.31.7.7.7.7-.31.7-.7-.31-.7-.7-.7h0Zm-2.92,0c-.39,0-.7.31-.7.7s.31.7.7.7.7-.31.7-.7-.31-.7-.7-.7h0Zm1.47,2.62c-.84,0-1.67,0-1.74.01-.15.01-.29.09-.38.2s-.17.34.02.67c.19.33.98,1.3,2.11,1.3s1.92-.96,2.1-1.3c.18-.35.13-.55.03-.67-.05-.06-.11-.1-.17-.14-.07-.03-.14-.06-.21-.06-.07,0-.91-.01-1.74-.01h0Z"/>
    </symbol>
    <symbol id="icon-leaf" viewBox="0 0 24 24">
      <path d="m22.94,2c-.03-.51-.43-.91-.94-.94C13.35.55,6.42,3.17,3.46,8.05c-2,3.29-1.94,7.16.1,10.97l-2.27,2.27c-.39.39-.39,1.02,0,1.41.2.2.45.29.71.29s.51-.1.71-.29l2.25-2.25c1.93,1.03,3.88,1.56,5.76,1.56s3.6-.49,5.22-1.48c4.89-2.96,7.5-9.89,6.99-18.53Zm-8.03,16.82c-2.51,1.52-5.47,1.55-8.45.13l10.25-10.25c.39-.39.39-1.02,0-1.41s-1.02-.39-1.41,0l-10.25,10.25c-1.41-2.98-1.39-5.95.13-8.45,2.47-4.08,8.33-6.33,15.81-6.07.25,7.47-1.99,13.34-6.07,15.81Z"/>
    </symbol>
    <symbol id="icon-lotus" viewBox="0 0 24 24">
      <path d="M22.22 8.13999C22.17 8.12999 21.2 7.91999 19.81 8.03999C19.24 5.81999 18.05 4.40999 17.99 4.33999C17.73 4.03999 17.32 3.91999 16.93 4.03999C16.87 4.05999 15.79 4.40999 14.42 5.21999C13.56 4.05999 12.8 3.32999 12.73 3.25999C12.35 2.89999 11.75 2.89999 11.37 3.25999C11.29 3.32999 10.5 4.06999 9.61998 5.23999C8.23998 4.40999 7.14998 4.05999 7.08998 4.03999C6.70998 3.91999 6.28998 4.03999 6.02998 4.33999C5.96998 4.40999 4.77998 5.81999 4.20998 8.03999C2.80998 7.90999 1.81998 8.11999 1.76998 8.13999C1.30998 8.24999 0.989984 8.65999 0.999984 9.13999C1.08998 13.24 3.48998 21 11.92 21C20.35 21 22.85 13.25 23 9.14999C23.02 8.66999 22.69 8.24999 22.22 8.13999ZM16.87 6.20999C17.17 6.68999 17.57 7.46999 17.84 8.42999C17.35 8.57999 16.89 8.74999 16.45 8.95999C16.19 8.21999 15.87 7.52999 15.52 6.89999C16.04 6.58999 16.52 6.35999 16.87 6.19999V6.20999ZM12.04 5.44999C13.09 6.65999 15 9.23999 15 12C15 14.76 13.29 17.17 12.04 18.56C10.1 16.45 8.99998 14.1 8.99998 12C8.99998 9.23999 10.97 6.65999 12.04 5.44999ZM7.14998 6.20999C7.49998 6.35999 7.97998 6.59999 8.50998 6.90999C8.14998 7.52999 7.81998 8.21999 7.55998 8.93999C7.06998 8.71999 6.60998 8.55999 6.17998 8.42999C6.44998 7.45999 6.84998 6.68999 7.14998 6.20999ZM3.06998 9.99999C3.65998 9.97999 4.49998 10.02 5.42998 10.29C5.94998 10.44 6.49998 10.62 7.06998 10.92C7.01998 11.27 6.98998 11.63 6.98998 11.99C6.98998 14.66 8.23998 16.99 9.56998 18.72C4.47998 17.46 3.31998 12.16 3.06998 9.99999ZM14.56 18.64C15.81 16.95 17 14.65 17 12C17 11.66 16.97 11.32 16.93 10.98C17.47 10.67 18.04 10.43 18.68 10.26C19.56 10.02 20.35 9.97999 20.91 9.99999C20.62 12.13 19.42 17.25 14.56 18.64Z"/>
    </symbol>
    <symbol id="icon-paw" viewBox="0 0 24 24">
      <path d="m20.08,7.15c-1.61,0-2.92,1.31-2.92,2.92s1.31,2.92,2.92,2.92,2.92-1.31,2.92-2.92-1.31-2.92-2.92-2.92Zm0,3.85c-.51,0-.92-.41-.92-.92s.41-.92.92-.92.92.41.92.92-.41.92-.92.92Zm-13.23-.92c0-1.61-1.31-2.92-2.92-2.92s-2.92,1.31-2.92,2.92,1.31,2.92,2.92,2.92,2.92-1.31,2.92-2.92Zm-2.92.92c-.51,0-.92-.41-.92-.92s.41-.92.92-.92.92.41.92.92-.41.92-.92.92Zm4.62-2.62c1.61,0,2.92-1.31,2.92-2.92s-1.31-2.92-2.92-2.92-2.92,1.31-2.92,2.92,1.31,2.92,2.92,2.92Zm0-3.85c.51,0,.92.41.92.92s-.41.92-.92.92-.92-.41-.92-.92.41-.92.92-.92Zm6.92,3.85c1.61,0,2.92-1.31,2.92-2.92s-1.31-2.92-2.92-2.92-2.92,1.31-2.92,2.92,1.31,2.92,2.92,2.92Zm0-3.85c.51,0,.92.41.92.92s-.41.92-.92.92-.92-.41-.92-.92.41-.92.92-.92Zm2.33,9.26c-.74-.41-1.27-1.08-1.51-1.89-.27-.92-.84-1.75-1.61-2.32-1.54-1.15-3.82-1.15-5.36,0-.77.58-1.34,1.4-1.61,2.32-.24.81-.77,1.49-1.5,1.89-.92.5-1.61,1.33-1.94,2.33-.32,1-.25,2.08.21,3.02s1.25,1.67,2.23,2.05c.47.18.96.26,1.44.26.54,0,1.07-.11,1.57-.32,1.46-.6,3.07-.6,4.52,0,.97.41,2.05.43,3.03.06.99-.37,1.78-1.1,2.23-2.05.46-.95.53-2.02.2-3.02-.32-1-1.01-1.83-1.93-2.33Zm-.08,4.48c-.23.48-.64.85-1.14,1.04-.5.19-1.05.18-1.55-.03-1.95-.8-4.1-.8-6.06,0-.49.21-1.04.22-1.54.03s-.91-.56-1.14-1.04c-.23-.48-.27-1.03-.11-1.54.17-.51.52-.93,1-1.19,1.2-.67,2.08-1.76,2.46-3.08.15-.51.46-.96.89-1.28.42-.32.95-.49,1.48-.49s1.05.18,1.48.49c.42.32.74.77.89,1.28.38,1.32,1.26,2.42,2.46,3.09,0,0,0,0,0,0,.47.26.82.68.99,1.19.17.51.13,1.06-.1,1.54Z"/>
    </symbol>
    <symbol id="icon-swimmer-indoor" viewBox="0 0 24 24">
      <path d="m17,12c.4,0,.78-.12,1.11-.34.33-.22.59-.53.74-.9.15-.37.19-.77.11-1.16-.08-.39-.27-.74-.55-1.02-.28-.28-.64-.47-1.02-.55-.39-.08-.79-.04-1.16.11-.37.15-.68.41-.9.74-.22.33-.34.72-.34,1.11,0,.53.21,1.04.59,1.41s.88.59,1.41.59Zm-14.29,4.64c.2.06.39.15.57.25.62.36,1.33.56,2.05.56s1.43-.19,2.05-.56c.39-.22.83-.33,1.28-.33s.89.11,1.28.33l.21.1c.61.3,1.28.44,1.95.42.67-.02,1.33-.21,1.92-.55.39-.22.83-.33,1.28-.33s.89.12,1.28.33c.63.36,1.35.56,2.08.56.7,0,1.39-.2,2-.56.18-.1.37-.19.57-.25.15-.01.29-.05.42-.13s.24-.17.33-.29c.09-.12.14-.26.17-.41.03-.15.02-.3-.02-.44-.04-.14-.11-.28-.21-.39-.1-.11-.22-.2-.35-.26-.14-.06-.28-.09-.43-.09-.15,0-.29.04-.43.11-.35.11-.68.26-1,.44-.32.18-.68.28-1.05.28s-.73-.1-1.05-.28c-.69-.39-1.47-.6-2.27-.6s-1.58.21-2.27.6c-.09.05-.19.09-.29.12l1.56-1.56s.07-.1.09-.15c.05-.05.09-.1.12-.16,0-.06,0-.13,0-.19,0-.06,0-.13,0-.19,0-.06,0-.12,0-.18,0-.06,0-.13,0-.19-.03-.06-.06-.12-.1-.17-.03-.06-.06-.11-.1-.16l-3.07-3.33c-.08-.09-.18-.16-.28-.22-.07,0-.14,0-.21,0-.06,0-.11,0-.17,0-.13-.05-.28-.07-.42-.06l-3.54,1.32c-.25.09-.45.28-.56.52-.11.24-.13.51-.04.76.09.25.28.45.52.56.24.11.51.13.76.04l2.93-1.07,2,2.12-1.9,1.9c-.64-.25-1.32-.35-2-.3s-1.34.25-1.94.58c-.32.18-.68.28-1.05.28s-.73-.1-1.05-.28c-.32-.18-.65-.33-1-.44-.13-.05-.26-.07-.4-.06-.14,0-.27.04-.39.1-.12.06-.23.15-.32.25-.09.1-.15.23-.19.36-.04.13-.05.27-.04.4.02.14.06.27.13.39.07.12.16.22.27.3.11.08.23.14.37.17l-.04.02Zm18,3.09c-.35.11-.68.26-1,.44-.32.18-.68.28-1.05.28s-.73-.1-1.05-.28c-.69-.39-1.47-.6-2.27-.6s-1.58.21-2.27.6c-.32.19-.69.29-1.06.29s-.74-.1-1.06-.29c-.69-.39-1.47-.6-2.27-.6s-1.58.21-2.27.6c-.32.18-.68.28-1.05.28s-.73-.1-1.05-.28c-.32-.18-.65-.33-1-.44-.13-.05-.26-.07-.4-.06-.14,0-.27.04-.39.1-.12.06-.23.15-.32.25-.09.1-.15.23-.19.36-.04.13-.05.27-.04.4s.06.27.13.39c.07.12.16.22.27.3.11.08.23.14.37.17.2.06.39.15.57.25.62.36,1.33.56,2.05.56s1.43-.19,2.05-.56c.39-.22.83-.33,1.28-.33s.89.11,1.28.33c.63.36,1.34.55,2.06.55s1.43-.19,2.06-.55c.39-.22.83-.33,1.28-.33s.89.11,1.28.33c.63.36,1.35.56,2.08.56.7,0,1.39-.2,2-.56.18-.1.37-.19.57-.25.13-.04.24-.1.35-.18.1-.08.19-.19.25-.3.06-.12.1-.24.11-.37.01-.13,0-.26-.04-.39-.04-.13-.1-.24-.18-.35-.08-.1-.19-.19-.3-.25-.12-.06-.24-.1-.37-.11-.13-.01-.26,0-.39.04h0ZM2,10c-.3,0-.59-.13-.79-.39-.34-.44-.26-1.06.18-1.4C4.85,5.52,10.9,1,12.5,1s7.58,3.86,10.06,5.52c.46.31.58.93.28,1.39-.31.46-.93.58-1.39.27-3.62-2.42-8.07-5.09-8.97-5.19-.89.17-5.84,3.66-9.86,6.79-.18.14-.4.21-.61.21Z"/>
    </symbol>
    <!-- /Not in the full definitions file -->
  </defs>
</svg>
