<svg version="1.1" id="logo" xmlns="http://www.w3.org/2000/svg" x="0" y="0" viewBox="0 0 506.5 313.4" style="enable-background:new 0 0 506.5 313.4" xml:space="preserve"><style>.st1{fill:url(#blue-symbol_00000013164697717749722480000008583351338824094877_)}.st2{fill:url(#yellow-symbol_00000060744304351749051710000014697798609769117103_)}</style><path id="Bancontact" d="M1.6 311.6v-72.8h22.5c16.3 0 26.8 6.1 26.8 18.8 0 7.2-3.3 12.2-8 15.1 6.8 3.1 10.7 9.1 10.7 17.4 0 14.7-10.7 21.5-27.3 21.5H1.6zM16.1 269h10.7c6.5 0 9.4-3.2 9.4-9.1 0-6.3-5.1-8.4-12-8.4h-8.1V269zm0 29.9H25c8.7 0 13.8-2.2 13.8-9s-4.4-9.6-12.6-9.6H16.1v18.6zm65.5 13.9c-14.2 0-21.4-7-21.4-16.3 0-10.3 8.4-16.3 20.9-16.4 3.1.1 6.2.3 9.3.8v-2.5c0-6.3-3.6-9.4-10.6-9.4-4.7-.1-9.3.8-13.7 2.5l-2.6-11.2c4.5-1.9 11.6-3.1 18-3.1 15.3 0 22.9 8.1 22.9 22.1v28.9c-4.4 2.2-12.4 4.6-22.8 4.6zm8.7-11.7V290c-2.4-.5-4.9-.8-7.4-.8-4.8 0-8.5 1.9-8.5 6.8 0 4.4 3.1 6.7 8.6 6.7 2.6-.1 5.1-.6 7.3-1.6zm24.1 10.5v-49.8c7.5-3 15.4-4.6 23.5-4.6 15.2 0 23.9 7.5 23.9 21.3v33.1h-14.3v-32c0-7.2-3.3-10.5-9.7-10.5-3.1 0-6.3.6-9.1 1.9v40.6h-14.3zm97.5-51.3-2.7 11.3c-3.7-1.6-7.7-2.5-11.7-2.6-8.4 0-13 5.9-13 15.7 0 10.7 4.8 16.2 13.7 16.2 4-.1 7.9-1 11.5-2.7l2.3 11.5c-4.7 2.1-9.8 3.1-15 3-17.3 0-27.2-10.7-27.2-27.6 0-16.8 9.9-28 26.4-28 5.4.1 10.7 1.1 15.7 3.2zm31 52.5c-16 0-26-11.1-26-27.9 0-16.6 10-27.8 26-27.8 16.1 0 25.9 11.1 25.9 27.8 0 16.8-9.8 27.9-25.9 27.9zm0-11.8c7.4 0 11.2-6.1 11.2-16 0-9.8-3.8-15.9-11.2-15.9-7.3 0-11.3 6.1-11.3 15.9-.1 9.8 4 16 11.3 16zm34.2 10.6v-49.8c7.5-3 15.4-4.6 23.5-4.6 15.2 0 23.9 7.5 23.9 21.3v33.1h-14.3v-32c0-7.2-3.3-10.5-9.7-10.5-3.1 0-6.3.6-9.1 1.9v40.6h-14.3zm79.7 1.2c-12.4 0-18.7-6.8-18.7-20.5v-22.5H331v-11.4h7.1v-11.5l14.3-.7v12.3H364v11.4h-11.5v22.2c0 6 2.5 8.8 7.2 8.8 1.9 0 3.7-.2 5.5-.6l.7 11.5c-3 .7-6.1 1-9.1 1zm36.2 0c-14.2 0-21.4-7-21.4-16.3 0-10.3 8.4-16.3 20.9-16.4 3.1.1 6.2.3 9.3.8v-2.5c0-6.3-3.6-9.4-10.6-9.4-4.7-.1-9.3.8-13.7 2.5l-2.6-11.2c4.5-1.9 11.6-3.1 18-3.1 15.3 0 22.9 8.1 22.9 22.1v28.9c-4.4 2.2-12.4 4.6-22.8 4.6zm8.7-11.7V290c-2.4-.5-4.9-.8-7.4-.8-4.8 0-8.5 1.9-8.5 6.8 0 4.4 3.1 6.7 8.6 6.7 2.6-.1 5.1-.6 7.3-1.6zm63-40.8-2.7 11.3c-3.7-1.6-7.7-2.5-11.7-2.6-8.4 0-13 5.9-13 15.7 0 10.7 4.8 16.2 13.7 16.2 4-.1 7.9-1 11.5-2.7l2.3 11.5c-4.7 2.1-9.8 3.1-15 3-17.3 0-27.2-10.7-27.2-27.6 0-16.8 9.9-28 26.4-28 5.4.1 10.8 1.1 15.7 3.2zm31.6 52.5c-12.4 0-18.7-6.8-18.7-20.5v-22.5h-7.1v-11.4h7.1v-11.5l14.3-.7v12.3h11.5v11.4h-11.5v22.2c0 6 2.5 8.8 7.2 8.8 1.9 0 3.7-.2 5.5-.6l.7 11.5c-3 .7-6 1-9 1z" style="fill:#1e3764"/><linearGradient id="blue-symbol_00000002352993269789371730000008926339012450169243_" gradientUnits="userSpaceOnUse" x1="52.555" y1="156.306" x2="236.795" y2="224.738" gradientTransform="matrix(1 0 0 -1 0 312.8)"><stop offset="0" style="stop-color:#005ab9"/><stop offset="1" style="stop-color:#1e3764"/></linearGradient><path id="blue-symbol" style="fill:url(#blue-symbol_00000002352993269789371730000008926339012450169243_)" d="M101.7 202.4c75.9 0 113.9-50.6 151.8-101.2H1.6v101.2h100.1z"/><linearGradient id="yellow-symbol_00000059298640342270562140000004607045608980677052_" gradientUnits="userSpaceOnUse" x1="268.714" y1="202.8" x2="464.339" y2="269.543" gradientTransform="matrix(1 0 0 -1 0 312.8)"><stop offset="0" style="stop-color:#fba900"/><stop offset="1" style="stop-color:#ffd800"/></linearGradient><path id="yellow-symbol" style="fill:url(#yellow-symbol_00000059298640342270562140000004607045608980677052_)" d="M405.3 0c-75.9 0-113.9 50.6-151.8 101.2h251.9V0H405.3z"/></svg>