<svg xmlns="http://www.w3.org/2000/svg" viewBox="0 0 722 380.9" style="enable-background:new 0 0 722 380.9" xml:space="preserve"><path d="M2.8 92c0-30.4 24.8-55.1 55.4-55.1h603.5c30.6 0 55.4 24.7 55.4 55.1v196.9c0 30.4-24.8 55.1-55.4 55.1H58.2c-30.6 0-55.4-24.7-55.4-55.1V92z" style="fill-rule:evenodd;clip-rule:evenodd;fill:#000268"/><path d="M25.5 93.9v193.2c0 19 15.5 34.4 34.6 34.4h316.2V59.4H60.1c-19.1 0-34.6 15.5-34.6 34.5zM458 189.5c0 12.3-6.1 20.8-16.2 20.8-8.9 0-16.3-8.5-16.3-19.7 0-11.6 6.5-20.2 16.3-20.2 10.4 0 16.2 8.9 16.2 19.1zm-59.1 70.6h26.7v-41.9h.3c5.1 9.2 15.1 12.6 24.5 12.6 23 0 35.3-19 35.3-41.8 0-18.7-11.7-39-33.1-39-12.1 0-23.4 4.9-28.8 15.7h-.3v-13.9h-24.6v108.3zM522 204.5c0-7.4 7.1-10.2 16.2-10.2 4 0 7.9.3 11.3.4 0 9-6.4 18.2-16.5 18.2-6.3 0-11-3.1-11-8.4zm53.8 24.4c-1.2-6.1-1.5-12.2-1.5-18.2v-28.8c0-23.6-17-32-36.8-32-11.4 0-21.3 1.6-30.8 5.5l.5 18.1c7.4-4.2 16-5.8 24.6-5.8 9.6 0 17.5 2.8 17.6 13.3-3.4-.6-8.2-1-12.5-1-14.2 0-39.9 2.8-39.9 26.4 0 16.8 13.6 24.3 28.9 24.3 11 0 18.4-4.3 24.5-13.9h.3c0 4 .4 8 .6 12.2l24.5-.1zm12 31.2c5.5 1.2 11 1.8 16.6 1.8 24.5 0 30.2-18.8 37.8-38.2l28.3-71.9h-26.7l-15.9 50.4h-.3L611 151.7h-28.7l31.3 79c-1.9 6.8-7 10.7-13.5 10.7-3.7 0-7-.5-10.5-1.6l-1.8 20.3z" style="fill-rule:evenodd;clip-rule:evenodd;fill:#fff"/><path d="M90.7 189.7c0-10.5 5.2-19.3 15.1-19.3 12 0 17 9.6 17 18.2 0 11.9-7.6 19.9-17 19.9-8 0-15.1-6.8-15.1-18.8zm57.9-38h-24.2v13.9h-.3c-5.6-9.5-14.8-15.7-26.2-15.7-24 0-34.8 17.2-34.8 40.2 0 22.8 13.2 38.8 34.4 38.8 10.7 0 19.6-4.2 25.9-13.2h.3v4.2c0 15.1-8.3 22.4-23.7 22.4-11.1 0-17.9-2.4-26.1-6.4L72.6 257c6.2 2.2 16.7 4.9 29.5 4.9 31.1 0 46.5-10.2 46.5-42v-68.2zm45.1-32.1H167v19.6h26.7v-19.6zM167 228.9h26.7v-77.2H167v77.2zm101-78.1c-2.7-.4-5.9-.9-9-.9-11.6 0-18.2 6.2-22.8 16h-.3v-14.2h-24.3v77.2h26.7v-32.6c0-15.1 7-24.2 19.4-24.2 3.1 0 6.1 0 9 .9l1.3-22.2zm45.9 61.2c-12.3 0-17.3-10.2-17.3-21.6 0-11.6 5-21.8 17.3-21.8s17.4 10.2 17.4 21.8c0 11.4-5.1 21.6-17.4 21.6zm0 18.7c25.5 0 44.9-14.8 44.9-40.3 0-25.6-19.4-40.5-44.9-40.5S269 164.7 269 190.4c0 25.5 19.4 40.3 44.9 40.3z" style="fill-rule:evenodd;clip-rule:evenodd;fill:#ff0007"/></svg>