<svg version="1.1" id="Layer_1" xmlns="http://www.w3.org/2000/svg" x="0" y="0" viewBox="0 0 798 323.7" style="enable-background:new 0 0 798 323.7" xml:space="preserve"><style>.st0{fill:#00579f}</style><g id="g4158" transform="matrix(4.42996 0 0 4.42996 -81.166 -105.048)"><path id="polygon9" class="st0" d="M96.4 88.1H82.1l9-55.5h14.3z"/><path id="path11" class="st0" d="M148.4 34c-2.8-1.1-7.3-2.4-12.9-2.4-14.2 0-24.1 7.6-24.2 18.4-.1 8 7.1 12.4 12.6 15.1 5.5 2.7 7.4 4.5 7.4 6.9-.1 3.7-4.5 5.4-8.6 5.4-5.7 0-8.8-.9-13.5-3l-1.9-.9-2 12.5c3.4 1.5 9.6 2.9 16 3 15.1 0 24.8-7.4 25-18.9.1-6.3-3.8-11.2-12-15.1-5-2.5-8.1-4.2-8.1-6.8.1-2.4 2.6-4.8 8.3-4.8 4.7-.1 8.1 1 10.7 2.1l1.3.6 1.9-12.1z"/><path id="path13" class="st0" d="M167.5 68.4c1.2-3.2 5.7-15.5 5.7-15.5-.1.1 1.2-3.2 1.9-5.3l1 4.8s2.7 13.3 3.3 16.1c-2.2-.1-9.1-.1-11.9-.1zm17.7-35.8h-11.1c-3.4 0-6 1-7.5 4.6l-21.3 50.9h15.1s2.5-6.8 3-8.3h18.4c.4 1.9 1.7 8.3 1.7 8.3h13.3l-11.6-55.5z"/><path id="path15" class="st0" d="m70.1 32.6-14 37.8-1.5-7.7C52 53.8 43.9 44.2 34.8 39.4L47.6 88h15.2l22.5-55.4H70.1z"/><path id="path17" d="M43 32.6H19.9l-.2 1.1c18 4.6 29.9 15.7 34.8 29l-5-25.5c-.8-3.5-3.4-4.5-6.5-4.6z" style="fill:#faa61a"/></g></svg>