<svg width="95" height="105" viewBox="0 0 95 105" fill="none" xmlns="http://www.w3.org/2000/svg">
<g filter="url(#filter0_d_369_12)">
<path d="M47.5 70L46.1132 72.0801C46.953 72.64 48.047 72.64 48.8868 72.0801L47.5 70ZM47.5 70C48.8868 72.0801 48.8874 72.0797 48.8881 72.0792L48.89 72.078L48.8952 72.0744L48.9119 72.0633L48.9692 72.0245C49.0179 71.9914 49.0873 71.944 49.1761 71.8825C49.3537 71.7595 49.6088 71.5803 49.9305 71.348C50.5736 70.8835 51.4841 70.2056 52.5729 69.3385C54.7467 67.6076 57.6515 65.1071 60.5649 62.0319C66.2893 55.9894 72.5 47.2549 72.5 37.5C72.5 30.8696 69.8661 24.5107 65.1777 19.8223C60.4893 15.1339 54.1304 12.5 47.5 12.5C40.8696 12.5 34.5107 15.1339 29.8223 19.8223C25.1339 24.5107 22.5 30.8696 22.5 37.5C22.5 47.2549 28.7107 55.9894 34.4351 62.0319C37.3485 65.1071 40.2533 67.6076 42.4271 69.3385C43.5159 70.2056 44.4264 70.8835 45.0695 71.348C45.3912 71.5803 45.6463 71.7595 45.8239 71.8825C45.9127 71.944 45.9821 71.9914 46.0308 72.0245L46.0881 72.0633L46.1048 72.0744L46.11 72.078L46.1119 72.0792C46.1126 72.0797 46.1132 72.0801 47.5 70Z" fill="#FFE682" stroke="white" stroke-width="5" stroke-linecap="round" stroke-linejoin="round"/>
</g>
<defs>
<filter id="filter0_d_369_12" x="0" y="0" width="95" height="105" filterUnits="userSpaceOnUse" color-interpolation-filters="sRGB">
<feFlood flood-opacity="0" result="BackgroundImageFix"/>
<feColorMatrix in="SourceAlpha" type="matrix" values="0 0 0 0 0 0 0 0 0 0 0 0 0 0 0 0 0 0 127 0" result="hardAlpha"/>
<feOffset dy="10"/>
<feGaussianBlur stdDeviation="10"/>
<feColorMatrix type="matrix" values="0 0 0 0 0.2211 0 0 0 0 0.27192 0 0 0 0 0.33 0 0 0 0.1 0"/>
<feBlend mode="normal" in2="BackgroundImageFix" result="effect1_dropShadow_369_12"/>
<feBlend mode="normal" in="SourceGraphic" in2="effect1_dropShadow_369_12" result="shape"/>
</filter>
</defs>
</svg>
